<?xml version="1.0" encoding="UTF-8" standalone="no"?>
<!DOCTYPE svg PUBLIC "-//W3C//DTD SVG 1.1//EN" "http://www.w3.org/Graphics/SVG/1.1/DTD/svg11.dtd">
<svg width="100%" height="100%" viewBox="0 0 1841 1950" version="1.1" xmlns="http://www.w3.org/2000/svg" xmlns:xlink="http://www.w3.org/1999/xlink" xml:space="preserve" xmlns:serif="http://www.serif.com/" style="fill-rule:evenodd;clip-rule:evenodd;stroke-linejoin:round;stroke-miterlimit:2;">
    <g transform="matrix(1,0,0,1,-80985.5,2732.85)">
        <g transform="matrix(5.55556,0,0,5.55556,81911,-1066.9)">
            <path d="M0,-25.804L0,0L-7.174,0L-7.174,-10.358L-15.922,-10.358L-15.922,0L-23.096,0L-23.096,-25.804L-15.922,-25.804L-15.922,-16.105L-7.174,-16.105L-7.174,-25.804L0,-25.804Z" style="fill:rgb(188,23,52);fill-rule:nonzero;"/>
        </g>
        <g transform="matrix(5.55556,0,0,5.55556,81998.3,-1106.55)">
            <path d="M0,-6.259C-0.721,-7.016 -1.605,-7.394 -2.655,-7.394C-3.728,-7.394 -4.619,-7.022 -5.326,-6.278C-6.034,-5.533 -6.387,-4.49 -6.387,-3.148C-6.387,-1.831 -6.034,-0.787 -5.326,-0.019C-4.619,0.749 -3.728,1.135 -2.655,1.135C-1.605,1.135 -0.721,0.756 0,0C0.718,-0.756 1.079,-1.806 1.079,-3.148C1.079,-4.465 0.718,-5.503 0,-6.259M-12.555,-8.712C-11.786,-10.297 -10.738,-11.516 -9.407,-12.372C-8.077,-13.225 -6.595,-13.653 -4.961,-13.653C-3.546,-13.653 -2.325,-13.372 -1.3,-12.811C-0.276,-12.249 0.517,-11.493 1.079,-10.542L1.079,-13.397L8.253,-13.397L8.253,7.137L1.079,7.137L1.079,4.282C0.517,5.234 -0.282,5.991 -1.318,6.551C-2.356,7.113 -3.57,7.394 -4.961,7.394C-6.595,7.394 -8.077,6.967 -9.407,6.113C-10.738,5.258 -11.786,4.032 -12.555,2.433C-13.324,0.836 -13.708,-1.026 -13.708,-3.148C-13.708,-5.271 -13.324,-7.125 -12.555,-8.712" style="fill:rgb(188,23,52);fill-rule:nonzero;"/>
        </g>
        <g transform="matrix(5.55556,0,0,5.55556,82062.7,-1092.92)">
            <path d="M0,-11.165C0.879,-12.75 2.105,-13.969 3.678,-14.825C5.253,-15.678 7.052,-16.106 9.077,-16.106C11.688,-16.106 13.885,-15.392 15.666,-13.964C17.447,-12.537 18.595,-10.542 19.107,-7.98L11.493,-7.98C11.053,-9.322 10.199,-9.993 8.931,-9.993C8.028,-9.993 7.314,-9.621 6.79,-8.878C6.264,-8.133 6.003,-7.041 6.003,-5.601C6.003,-4.162 6.264,-3.063 6.79,-2.307C7.314,-1.55 8.028,-1.173 8.931,-1.173C10.224,-1.173 11.078,-1.843 11.493,-3.186L19.107,-3.186C18.595,-0.647 17.447,1.341 15.666,2.781C13.885,4.221 11.688,4.941 9.077,4.941C7.052,4.941 5.253,4.514 3.678,3.66C2.105,2.805 0.879,1.585 0,-0.002C-0.878,-1.588 -1.317,-3.454 -1.317,-5.601C-1.317,-7.724 -0.878,-9.578 0,-11.165" style="fill:rgb(188,23,52);fill-rule:nonzero;"/>
        </g>
        <g transform="matrix(5.55556,0,0,5.55556,82248.5,-1112.65)">
            <path d="M0,-4.063C0,-4.941 -0.293,-5.631 -0.879,-6.13C-1.464,-6.631 -2.196,-6.882 -3.075,-6.882C-3.953,-6.882 -4.673,-6.643 -5.234,-6.168C-5.795,-5.692 -6.162,-4.991 -6.332,-4.063L0,-4.063ZM7.21,-0.586L-6.368,-0.586C-6.295,0.536 -5.984,1.372 -5.435,1.921C-4.886,2.469 -4.185,2.744 -3.331,2.744C-2.136,2.744 -1.282,2.208 -0.769,1.134L6.881,1.134C6.564,2.549 5.947,3.812 5.032,4.923C4.117,6.033 2.965,6.905 1.574,7.54C0.183,8.174 -1.355,8.492 -3.038,8.492C-5.064,8.492 -6.863,8.065 -8.437,7.21C-10.01,6.356 -11.243,5.136 -12.133,3.549C-13.024,1.963 -13.469,0.097 -13.469,-2.05C-13.469,-4.197 -13.031,-6.058 -12.151,-7.631C-11.273,-9.206 -10.047,-10.418 -8.473,-11.274C-6.899,-12.127 -5.087,-12.555 -3.038,-12.555C-1.013,-12.555 0.781,-12.139 2.342,-11.309C3.903,-10.48 5.124,-9.291 6.002,-7.742C6.881,-6.192 7.32,-4.368 7.32,-2.27C7.32,-1.708 7.283,-1.147 7.21,-0.586" style="fill:rgb(188,23,52);fill-rule:nonzero;"/>
        </g>
        <g transform="matrix(5.55556,0,0,5.55556,82356.5,-1072.6)">
            <path d="M0,-18.665C1.146,-19.348 2.379,-19.691 3.696,-19.691L3.696,-12.041L1.684,-12.041C0.121,-12.041 -1.038,-11.736 -1.793,-11.126C-2.55,-10.516 -2.928,-9.454 -2.928,-7.941L-2.928,1.026L-10.102,1.026L-10.102,-19.508L-2.928,-19.508L-2.928,-15.884C-2.123,-17.055 -1.148,-17.982 0,-18.665" style="fill:rgb(188,23,52);fill-rule:nonzero;"/>
        </g>
        <g transform="matrix(5.55556,0,0,5.55556,81997.6,-966.908)">
            <path d="M0,-6.456C-0.744,-7.236 -1.656,-7.627 -2.739,-7.627C-3.847,-7.627 -4.765,-7.243 -5.495,-6.475C-6.227,-5.707 -6.591,-4.63 -6.591,-3.246C-6.591,-1.886 -6.227,-0.81 -5.495,-0.017C-4.765,0.777 -3.847,1.173 -2.739,1.173C-1.656,1.173 -0.744,0.783 0,0.003C0.742,-0.778 1.114,-1.861 1.114,-3.246C1.114,-4.605 0.742,-5.675 0,-6.456M-12.954,-8.986C-12.161,-10.623 -11.079,-11.881 -9.707,-12.763C-8.334,-13.644 -6.805,-14.086 -5.118,-14.086C-3.658,-14.086 -2.399,-13.795 -1.341,-13.217C-0.284,-12.637 0.534,-11.857 1.114,-10.875L1.114,-13.821L8.516,-13.821L8.516,7.367L1.114,7.367L1.114,4.421C0.534,5.403 -0.29,6.184 -1.36,6.763C-2.431,7.342 -3.682,7.63 -5.118,7.63C-6.805,7.63 -8.334,7.191 -9.707,6.309C-11.079,5.427 -12.161,4.163 -12.954,2.513C-13.747,0.864 -14.144,-1.056 -14.144,-3.246C-14.144,-5.437 -13.747,-7.35 -12.954,-8.986" style="fill:rgb(207,165,91);fill-rule:nonzero;"/>
        </g>
        <g transform="matrix(5.55556,0,0,5.55556,82126.3,-931.853)">
            <path d="M0,-19.262C1.184,-19.966 2.456,-20.319 3.815,-20.319L3.815,-12.426L1.738,-12.426C0.126,-12.426 -1.07,-12.111 -1.85,-11.481C-2.631,-10.852 -3.021,-9.757 -3.021,-8.196L-3.021,1.057L-10.423,1.057L-10.423,-20.131L-3.021,-20.131L-3.021,-16.391C-2.19,-17.599 -1.183,-18.557 0,-19.262" style="fill:rgb(207,165,91);fill-rule:nonzero;"/>
        </g>
        <g transform="matrix(5.55556,0,0,5.55556,82234,-966.908)">
            <path d="M0,-6.456C-0.744,-7.236 -1.656,-7.627 -2.739,-7.627C-3.847,-7.627 -4.765,-7.243 -5.495,-6.475C-6.227,-5.707 -6.591,-4.63 -6.591,-3.246C-6.591,-1.886 -6.227,-0.81 -5.495,-0.017C-4.765,0.777 -3.847,1.173 -2.739,1.173C-1.656,1.173 -0.744,0.783 0,0.003C0.741,-0.778 1.114,-1.861 1.114,-3.246C1.114,-4.605 0.741,-5.675 0,-6.456M-12.954,-8.986C-12.161,-10.623 -11.079,-11.881 -9.707,-12.763C-8.335,-13.644 -6.805,-14.086 -5.118,-14.086C-3.658,-14.086 -2.399,-13.795 -1.341,-13.217C-0.284,-12.637 0.534,-11.857 1.114,-10.875L1.114,-13.821L8.516,-13.821L8.516,7.367L1.114,7.367L1.114,4.421C0.534,5.403 -0.29,6.184 -1.361,6.763C-2.431,7.342 -3.682,7.63 -5.118,7.63C-6.805,7.63 -8.335,7.191 -9.707,6.309C-11.079,5.427 -12.161,4.163 -12.954,2.513C-13.747,0.864 -14.144,-1.056 -14.144,-3.246C-14.144,-5.437 -13.747,-7.35 -12.954,-8.986" style="fill:rgb(207,165,91);fill-rule:nonzero;"/>
        </g>
        <g transform="matrix(5.55556,0,0,5.55556,81830.3,-937.331)">
            <path d="M0,-11.78C0.743,-12.56 1.655,-12.951 2.739,-12.951C3.821,-12.951 4.734,-12.567 5.476,-11.799C6.219,-11.031 6.591,-9.954 6.591,-8.57C6.591,-7.21 6.219,-6.134 5.476,-5.341C4.734,-4.547 3.821,-4.151 2.739,-4.151C1.655,-4.151 0.743,-4.541 0,-5.321C-0.742,-6.102 -1.114,-7.185 -1.114,-8.57C-1.114,-9.929 -0.742,-10.999 0,-11.78M-5.936,5.727C-4.478,4.936 -2.862,4.44 -1.114,4.243L-1.114,-0.903C-0.51,0.079 0.315,0.86 1.359,1.439C2.405,2.018 3.645,2.306 5.079,2.306C6.766,2.306 8.296,1.867 9.668,0.985C11.041,0.103 12.123,-1.161 12.916,-2.811C13.709,-4.46 14.105,-6.38 14.105,-8.57C14.105,-10.761 13.709,-12.674 12.916,-14.31C12.123,-15.947 11.041,-17.205 9.668,-18.087C8.296,-18.968 6.766,-19.41 5.079,-19.41C3.645,-19.41 2.399,-19.119 1.341,-18.541C0.284,-17.961 -0.535,-17.181 -1.114,-16.199L-1.114,-19.145L-8.516,-19.145L-8.516,7.63C-7.756,6.888 -6.898,6.248 -5.936,5.727" style="fill:rgb(207,165,91);fill-rule:nonzero;"/>
        </g>
        <g transform="matrix(5.55556,0,0,5.55556,81783.5,-811.081)">
            <path d="M0,-11.165C0.878,-12.751 2.105,-13.971 3.678,-14.825C5.252,-15.678 7.051,-16.106 9.077,-16.106C11.688,-16.106 13.884,-15.392 15.666,-13.965C17.447,-12.537 18.594,-10.542 19.106,-7.981L11.493,-7.981C11.053,-9.322 10.199,-9.994 8.93,-9.994C8.027,-9.994 7.313,-9.621 6.79,-8.877C6.264,-8.132 6.002,-7.041 6.002,-5.602C6.002,-4.161 6.264,-3.063 6.79,-2.308C7.313,-1.551 8.027,-1.173 8.93,-1.173C10.224,-1.173 11.078,-1.843 11.493,-3.186L19.106,-3.186C18.594,-0.647 17.447,1.341 15.666,2.781C13.884,4.221 11.688,4.941 9.077,4.941C7.051,4.941 5.252,4.514 3.678,3.659C2.105,2.805 0.878,1.585 0,-0.002C-0.878,-1.588 -1.318,-3.454 -1.318,-5.602C-1.318,-7.724 -0.878,-9.579 0,-11.165" style="fill:rgb(108,174,229);fill-rule:nonzero;"/>
        </g>
        <g transform="matrix(5.55556,0,0,5.55556,81957.1,-790.752)">
            <path d="M0,-18.667C1.147,-19.349 2.379,-19.692 3.697,-19.692L3.697,-12.042L1.684,-12.042C0.122,-12.042 -1.038,-11.737 -1.793,-11.127C-2.549,-10.517 -2.928,-9.456 -2.928,-7.943L-2.928,1.025L-10.102,1.025L-10.102,-19.509L-2.928,-19.509L-2.928,-15.885C-2.123,-17.056 -1.147,-17.983 0,-18.667" style="fill:rgb(108,174,229);fill-rule:nonzero;"/>
        </g>
        <g transform="matrix(5.55556,0,0,5.55556,82055.2,-830.808)">
            <path d="M0,-4.063C0,-4.942 -0.292,-5.631 -0.878,-6.132C-1.463,-6.632 -2.196,-6.882 -3.074,-6.882C-3.952,-6.882 -4.672,-6.643 -5.234,-6.168C-5.795,-5.692 -6.161,-4.99 -6.332,-4.063L0,-4.063ZM7.211,-0.586L-6.368,-0.586C-6.295,0.536 -5.984,1.372 -5.434,1.921C-4.886,2.47 -4.185,2.744 -3.331,2.744C-2.136,2.744 -1.281,2.208 -0.768,1.133L6.881,1.133C6.564,2.549 5.947,3.812 5.032,4.922C4.118,6.033 2.965,6.905 1.574,7.54C0.183,8.174 -1.354,8.492 -3.038,8.492C-5.063,8.492 -6.862,8.065 -8.436,7.21C-10.01,6.356 -11.243,5.136 -12.133,3.549C-13.024,1.963 -13.469,0.097 -13.469,-2.051C-13.469,-4.197 -13.03,-6.058 -12.151,-7.632C-11.273,-9.206 -10.047,-10.42 -8.473,-11.274C-6.899,-12.127 -5.087,-12.555 -3.038,-12.555C-1.013,-12.555 0.781,-12.139 2.342,-11.311C3.904,-10.48 5.124,-9.291 6.003,-7.741C6.881,-6.192 7.32,-4.368 7.32,-2.27C7.32,-1.708 7.284,-1.148 7.211,-0.586" style="fill:rgb(108,174,229);fill-rule:nonzero;"/>
        </g>
        <g transform="matrix(5.55556,0,0,5.55556,82107.8,-811.081)">
            <path d="M0,-11.165C0.878,-12.751 2.105,-13.971 3.678,-14.825C5.252,-15.678 7.051,-16.106 9.077,-16.106C11.688,-16.106 13.884,-15.392 15.666,-13.965C17.447,-12.537 18.594,-10.542 19.106,-7.981L11.493,-7.981C11.054,-9.322 10.199,-9.994 8.931,-9.994C8.027,-9.994 7.313,-9.621 6.79,-8.877C6.264,-8.132 6.003,-7.041 6.003,-5.602C6.003,-4.161 6.264,-3.063 6.79,-2.308C7.313,-1.551 8.027,-1.173 8.931,-1.173C10.224,-1.173 11.078,-1.843 11.493,-3.186L19.106,-3.186C18.594,-0.647 17.447,1.341 15.666,2.781C13.884,4.221 11.688,4.941 9.077,4.941C7.051,4.941 5.252,4.514 3.678,3.659C2.105,2.805 0.878,1.585 0,-0.002C-0.878,-1.588 -1.318,-3.454 -1.318,-5.602C-1.318,-7.724 -0.878,-9.579 0,-11.165" style="fill:rgb(108,174,229);fill-rule:nonzero;"/>
        </g>
        <g transform="matrix(5.55556,0,0,5.55556,82293.7,-830.808)">
            <path d="M0,-4.063C0,-4.942 -0.292,-5.631 -0.878,-6.132C-1.463,-6.632 -2.196,-6.882 -3.074,-6.882C-3.952,-6.882 -4.672,-6.643 -5.233,-6.168C-5.795,-5.692 -6.161,-4.99 -6.331,-4.063L0,-4.063ZM7.211,-0.586L-6.368,-0.586C-6.295,0.536 -5.984,1.372 -5.434,1.921C-4.886,2.47 -4.185,2.744 -3.331,2.744C-2.136,2.744 -1.281,2.208 -0.768,1.133L6.881,1.133C6.564,2.549 5.947,3.812 5.033,4.922C4.118,6.033 2.965,6.905 1.574,7.54C0.183,8.174 -1.354,8.492 -3.037,8.492C-5.063,8.492 -6.862,8.065 -8.437,7.21C-10.01,6.356 -11.243,5.136 -12.133,3.549C-13.024,1.963 -13.47,0.097 -13.47,-2.051C-13.47,-4.197 -13.03,-6.058 -12.152,-7.632C-11.274,-9.206 -10.047,-10.42 -8.473,-11.274C-6.899,-12.127 -5.087,-12.555 -3.037,-12.555C-1.013,-12.555 0.781,-12.139 2.343,-11.311C3.904,-10.48 5.125,-9.291 6.003,-7.741C6.881,-6.192 7.321,-4.368 7.321,-2.27C7.321,-1.708 7.284,-1.148 7.211,-0.586" style="fill:rgb(108,174,229);fill-rule:nonzero;"/>
        </g>
        <g transform="matrix(5.55556,0,0,5.55556,82401.6,-790.752)">
            <path d="M0,-18.667C1.146,-19.349 2.379,-19.692 3.697,-19.692L3.697,-12.042L1.684,-12.042C0.122,-12.042 -1.038,-11.737 -1.793,-11.127C-2.549,-10.517 -2.928,-9.456 -2.928,-7.943L-2.928,1.025L-10.102,1.025L-10.102,-19.509L-2.928,-19.509L-2.928,-15.885C-2.123,-17.056 -1.148,-17.983 0,-18.667" style="fill:rgb(108,174,229);fill-rule:nonzero;"/>
        </g>
        <g transform="matrix(5.55556,0,0,5.55556,81543.9,-806.693)">
            <path d="M0,-31.118C0.265,-32.511 0.876,-33.806 1.707,-34.95C1.338,-34.471 1.025,-34.084 0.911,-33.954L-7.264,-25.373C-7.719,-24.895 -8.125,-24.386 -8.487,-23.853L-8.386,-23.96C-8.428,-23.915 -8.466,-23.867 -8.507,-23.822C-10.902,-20.273 -11.227,-15.645 -9.214,-11.749L-1.165,3.832L15.783,3.832L1.443,-23.925C1.443,-23.926 -0.802,-26.911 0,-31.118" style="fill:white;fill-rule:nonzero;"/>
        </g>
        <g transform="matrix(5.55556,0,0,5.55556,81567.5,-1246.52)">
            <path d="M0,39.404C-0.001,39.408 -0.001,39.411 -0.002,39.415C-0.027,39.538 -0.194,40.126 -0.2,40.145C-0.414,40.833 -0.704,41.502 -1.08,42.129C-1.408,42.676 -1.916,43.379 -2.372,43.981C-2.158,43.7 -1.938,43.423 -1.697,43.164L6.575,34.264L7.701,33.052C10.889,29.4 11.55,24.155 9.309,19.818L-3.294,-4.577L-19.832,-4.525L-1.832,31.057L-0.821,33.014C0.22,35.03 0.474,37.292 0,39.404" style="fill:white;fill-rule:nonzero;"/>
        </g>
        <g transform="matrix(5.55556,0,0,5.55556,81496.6,-1055.02)">
            <path d="M0,20.878C0.007,20.868 0.013,20.857 0.02,20.846C0.382,20.314 0.788,19.805 1.243,19.327L9.418,10.746C9.532,10.616 9.845,10.229 10.214,9.75C10.234,9.721 10.251,9.69 10.272,9.662C10.311,9.609 10.357,9.563 10.397,9.511C10.854,8.909 11.361,8.207 11.689,7.66C12.066,7.032 12.356,6.363 12.57,5.675C12.576,5.656 12.742,5.068 12.768,4.945C12.769,4.941 12.769,4.938 12.769,4.934C13.243,2.822 12.989,0.56 11.948,-1.455L10.937,-3.412L-1.357,-27.716L-19.348,-27.716L-0.344,9.069C1.977,13.562 1.194,19.032 -2.294,22.693L-9.823,30.595C-13.638,34.6 -14.495,40.585 -11.954,45.499L-10.51,48.295C-10.415,48.479 -10.225,48.594 -10.018,48.594L7.346,48.54L7.342,48.532L-0.707,32.951C-2.72,29.055 -2.395,24.427 0,20.878" style="fill:rgb(188,23,52);fill-rule:nonzero;"/>
        </g>
        <g transform="matrix(5.55556,0,0,5.55556,81727.6,-1332.83)">
            <path d="M0,97.688L-19.865,59.235C-22.186,54.743 -21.403,49.272 -17.915,45.611L-8.76,35.656C-5.988,32.746 -5.365,28.399 -7.21,24.829L-20.479,-0.855L-38.181,-0.802L-32.105,10.959L-19.502,35.354C-17.26,39.691 -17.921,44.936 -21.109,48.588L-22.236,49.8L-30.508,58.7C-30.749,58.959 -30.968,59.236 -31.183,59.517C-31.223,59.569 -31.269,59.615 -31.308,59.668C-31.329,59.696 -31.346,59.727 -31.366,59.756C-32.198,60.9 -32.808,62.195 -33.073,63.588C-33.875,67.795 -31.631,70.78 -31.63,70.781L-17.29,98.538L-17.288,98.543L-0.487,98.492C-0.075,98.49 0.189,98.054 0,97.688" style="fill:rgb(108,174,229);fill-rule:nonzero;"/>
        </g>
        <g transform="matrix(5.55556,0,0,5.55556,82157.3,-1510.5)">
            <path d="M0,-2.763C-0.378,-2.401 -0.952,-2.22 -1.724,-2.22L-3.921,-2.22L-3.921,-6.376L-1.724,-6.376C-0.952,-6.376 -0.378,-6.195 0,-5.833C0.378,-5.47 0.567,-4.959 0.567,-4.299C0.567,-3.637 0.378,-3.124 0,-2.763M1.937,-8.95C1.023,-9.407 -0.095,-9.636 -1.417,-9.636L-7.96,-9.636L-7.96,6.944L-3.921,6.944L-3.921,0.993L-1.417,0.993C-0.063,0.993 1.07,0.748 1.984,0.26C2.897,-0.228 3.575,-0.87 4.015,-1.664C4.456,-2.46 4.677,-3.339 4.677,-4.299C4.677,-5.337 4.448,-6.259 3.991,-7.061C3.535,-7.864 2.85,-8.494 1.937,-8.95M-66.133,2.197C-66.983,3.032 -68.172,3.448 -69.699,3.448L-71.612,3.448L-71.612,-6.187L-69.699,-6.187C-68.172,-6.187 -66.983,-5.762 -66.133,-4.913C-65.283,-4.062 -64.857,-2.873 -64.857,-1.346C-64.857,0.182 -65.283,1.362 -66.133,2.197M-64.857,-8.597C-66.165,-9.29 -67.692,-9.636 -69.439,-9.636L-75.651,-9.636L-75.651,6.944L-69.439,6.944C-67.707,6.944 -66.184,6.598 -64.869,5.906C-63.554,5.212 -62.539,4.235 -61.822,2.976C-61.106,1.716 -60.748,0.276 -60.748,-1.346C-60.748,-2.983 -61.106,-4.427 -61.822,-5.68C-62.539,-6.932 -63.551,-7.903 -64.857,-8.597M-58.58,6.944L-48.424,6.944L-48.424,3.708L-54.541,3.708L-54.541,0.071L-49.133,0.071L-49.133,-3.047L-54.541,-3.047L-54.541,-6.401L-48.424,-6.401L-48.424,-9.636L-58.58,-9.636L-58.58,6.944ZM-24.705,0.897L-22.674,-5.171L-20.619,0.897L-24.705,0.897ZM-24.988,-9.636L-30.987,6.944L-26.76,6.944L-25.767,4.016L-19.58,4.016L-18.588,6.944L-14.313,6.944L-20.312,-9.636L-24.988,-9.636ZM32.286,2.102C31.49,2.984 30.432,3.425 29.109,3.425C27.77,3.425 26.704,2.988 25.909,2.114C25.114,1.241 24.716,0.071 24.716,-1.392C24.716,-2.873 25.114,-4.046 25.909,-4.913C26.704,-5.778 27.77,-6.211 29.109,-6.211C30.432,-6.211 31.49,-5.774 32.286,-4.9C33.081,-4.026 33.479,-2.857 33.479,-1.392C33.479,0.055 33.081,1.221 32.286,2.102M33.396,-8.786C32.096,-9.509 30.668,-9.872 29.109,-9.872C27.55,-9.872 26.121,-9.509 24.822,-8.786C23.523,-8.06 22.492,-7.054 21.729,-5.762C20.964,-4.471 20.583,-3.015 20.583,-1.392C20.583,0.228 20.964,1.689 21.729,2.988C22.492,4.287 23.523,5.299 24.822,6.023C26.121,6.748 27.55,7.109 29.109,7.109C30.668,7.109 32.093,6.748 33.384,6.023C34.675,5.299 35.699,4.287 36.454,2.988C37.211,1.689 37.588,0.228 37.588,-1.392C37.588,-3.015 37.214,-4.471 36.466,-5.762C35.718,-7.054 34.694,-8.06 33.396,-8.786M14.579,-2.716C14.209,-2.353 13.655,-2.173 12.914,-2.173L10.411,-2.173L10.411,-6.282L12.914,-6.282C13.655,-6.282 14.209,-6.1 14.579,-5.739C14.949,-5.377 15.135,-4.881 15.135,-4.251C15.135,-3.59 14.949,-3.078 14.579,-2.716M18.311,-1.465C18.933,-2.33 19.245,-3.314 19.245,-4.416C19.245,-5.392 19.016,-6.278 18.559,-7.074C18.102,-7.869 17.413,-8.494 16.493,-8.95C15.572,-9.407 14.457,-9.636 13.15,-9.636L6.372,-9.636L6.372,6.944L10.411,6.944L10.411,0.685L11.38,0.685L14.828,6.944L19.386,6.944L15.56,0.379C16.772,0.016 17.689,-0.598 18.311,-1.465M98.164,6.944L102.204,6.944L102.204,-9.636L98.164,-9.636L98.164,6.944ZM109.932,0.897L111.965,-5.171L114.019,0.897L109.932,0.897ZM114.323,-9.636L109.648,-9.636L103.65,6.944L107.878,6.944L108.871,4.016L115.059,4.016L116.052,6.944L120.328,6.944L114.323,-9.636ZM55.766,6.944L59.805,6.944L59.805,-9.636L55.766,-9.636L55.766,6.944ZM88.079,-6.141C88.849,-6.141 89.538,-5.959 90.146,-5.597C90.754,-5.235 91.22,-4.708 91.551,-4.014L95.989,-4.014C95.516,-5.81 94.584,-7.227 93.179,-8.266C91.781,-9.306 90.092,-9.824 88.126,-9.824C86.518,-9.824 85.086,-9.466 83.816,-8.749C82.547,-8.033 81.56,-7.034 80.851,-5.751C80.142,-4.468 79.79,-3.008 79.79,-1.369C79.79,0.269 80.142,1.725 80.851,3C81.56,4.275 82.547,5.272 83.816,5.988C85.086,6.704 86.518,7.062 88.126,7.062C90.092,7.062 91.781,6.547 93.179,5.515C94.584,4.484 95.516,3.071 95.989,1.276L91.551,1.276C91.22,1.969 90.754,2.497 90.146,2.857C89.538,3.22 88.849,3.402 88.079,3.402C86.836,3.402 85.829,2.969 85.053,2.102C84.282,1.237 83.897,0.08 83.897,-1.369C83.897,-2.818 84.282,-3.976 85.053,-4.842C85.829,-5.708 86.836,-6.141 88.079,-6.141M46.008,2.882L41.899,-9.636L37.6,-9.636L43.481,6.944L48.535,6.944L54.416,-9.636L50.141,-9.636L46.008,2.882ZM73.582,0.639L66.827,-9.636L62.788,-9.636L62.788,6.944L66.827,6.944L66.827,-3.282L73.582,6.944L77.622,6.944L77.622,-9.636L73.582,-9.636L73.582,0.639ZM-37.229,-9.636L-41.268,-9.636L-41.268,6.944L-31.938,6.944L-31.938,3.827L-37.229,3.827L-37.229,-9.636ZM-151.491,6.944L-147.452,6.944L-147.452,-9.636L-151.491,-9.636L-151.491,6.944ZM-144.469,6.944L-134.312,6.944L-134.312,3.708L-140.43,3.708L-140.43,0.071L-135.021,0.071L-135.021,-3.047L-140.43,-3.047L-140.43,-6.401L-134.312,-6.401L-134.312,-9.636L-144.469,-9.636L-144.469,6.944ZM-158.466,3.225C-158.837,3.531 -159.36,3.685 -160.037,3.685L-163.013,3.685L-163.013,0.025L-160.085,0.025C-159.408,0.025 -158.876,0.19 -158.49,0.52C-158.105,0.851 -157.911,1.308 -157.911,1.89C-157.911,2.473 -158.096,2.917 -158.466,3.225M-163.013,-6.401L-160.368,-6.401C-159.706,-6.401 -159.199,-6.251 -158.845,-5.951C-158.49,-5.652 -158.313,-5.219 -158.313,-4.652C-158.313,-4.085 -158.49,-3.656 -158.845,-3.366C-159.199,-3.074 -159.706,-2.928 -160.368,-2.928L-163.013,-2.928L-163.013,-6.401ZM-157.014,-1.559C-156.164,-1.81 -155.482,-2.259 -154.971,-2.905C-154.46,-3.551 -154.203,-4.361 -154.203,-5.337C-154.203,-6.659 -154.68,-7.706 -155.632,-8.478C-156.585,-9.249 -157.903,-9.636 -159.589,-9.636L-167.052,-9.636L-167.052,6.944L-159.329,6.944C-157.597,6.944 -156.247,6.538 -155.278,5.728C-154.31,4.918 -153.826,3.818 -153.826,2.433C-153.826,1.472 -154.117,0.619 -154.699,-0.13C-155.282,-0.877 -156.054,-1.353 -157.014,-1.559M-174.51,2.102C-175.306,2.984 -176.364,3.425 -177.687,3.425C-179.026,3.425 -180.093,2.988 -180.888,2.114C-181.683,1.241 -182.08,0.071 -182.08,-1.392C-182.08,-2.873 -181.683,-4.046 -180.888,-4.913C-180.093,-5.778 -179.026,-6.211 -177.687,-6.211C-176.364,-6.211 -175.306,-5.774 -174.51,-4.9C-173.716,-4.026 -173.318,-2.857 -173.318,-1.392C-173.318,0.055 -173.716,1.221 -174.51,2.102M-173.4,-8.786C-174.699,-9.509 -176.128,-9.872 -177.687,-9.872C-179.246,-9.872 -180.675,-9.509 -181.974,-8.786C-183.273,-8.06 -184.304,-7.054 -185.068,-5.762C-185.832,-4.471 -186.213,-3.015 -186.213,-1.392C-186.213,0.228 -185.832,1.689 -185.068,2.988C-184.304,4.287 -183.273,5.299 -181.974,6.023C-180.675,6.748 -179.246,7.109 -177.687,7.109C-176.128,7.109 -174.703,6.748 -173.412,6.023C-172.122,5.299 -171.097,4.287 -170.342,2.988C-169.586,1.689 -169.208,0.228 -169.208,-1.392C-169.208,-3.015 -169.582,-4.471 -170.33,-5.762C-171.078,-7.054 -172.101,-8.06 -173.4,-8.786M-196.435,0.568L-191.31,0.568C-191.626,1.512 -192.125,2.236 -192.81,2.74C-193.495,3.244 -194.333,3.496 -195.325,3.496C-196.774,3.496 -197.911,3.067 -198.738,2.209C-199.565,1.351 -199.978,0.157 -199.978,-1.369C-199.978,-2.802 -199.585,-3.948 -198.797,-4.806C-198.01,-5.664 -196.963,-6.093 -195.656,-6.093C-194.901,-6.093 -194.243,-5.947 -193.684,-5.657C-193.125,-5.365 -192.696,-4.943 -192.397,-4.393L-187.933,-4.393C-188.374,-6.093 -189.276,-7.423 -190.637,-8.384C-191.999,-9.345 -193.672,-9.824 -195.656,-9.824C-197.294,-9.824 -198.75,-9.466 -200.026,-8.749C-201.3,-8.033 -202.297,-7.034 -203.013,-5.751C-203.729,-4.468 -204.088,-3.008 -204.088,-1.369C-204.088,0.269 -203.729,1.725 -203.013,3C-202.297,4.275 -201.297,5.272 -200.013,5.988C-198.731,6.704 -197.27,7.062 -195.632,7.062C-194.247,7.062 -193.003,6.796 -191.901,6.259C-190.799,5.723 -189.889,5.023 -189.173,4.158C-188.456,3.291 -187.948,2.355 -187.65,1.346L-187.65,-2.41L-196.435,-2.41L-196.435,0.568ZM-105.641,0.639L-112.396,-9.636L-116.435,-9.636L-116.435,6.944L-112.396,6.944L-112.396,-3.282L-105.641,6.944L-101.602,6.944L-101.602,-9.636L-105.641,-9.636L-105.641,0.639ZM-87.73,2.102C-88.526,2.984 -89.585,3.425 -90.907,3.425C-92.246,3.425 -93.313,2.988 -94.108,2.114C-94.903,1.241 -95.3,0.071 -95.3,-1.392C-95.3,-2.873 -94.903,-4.046 -94.108,-4.913C-93.313,-5.778 -92.246,-6.211 -90.907,-6.211C-89.585,-6.211 -88.526,-5.774 -87.73,-4.9C-86.936,-4.026 -86.538,-2.857 -86.538,-1.392C-86.538,0.055 -86.936,1.221 -87.73,2.102M-86.62,-8.786C-87.919,-9.509 -89.348,-9.872 -90.907,-9.872C-92.466,-9.872 -93.895,-9.509 -95.194,-8.786C-96.493,-8.06 -97.525,-7.054 -98.288,-5.762C-99.053,-4.471 -99.434,-3.015 -99.434,-1.392C-99.434,0.228 -99.053,1.689 -98.288,2.988C-97.525,4.287 -96.493,5.299 -95.194,6.023C-93.895,6.748 -92.466,7.109 -90.907,7.109C-89.348,7.109 -87.923,6.748 -86.633,6.023C-85.342,5.299 -84.318,4.287 -83.562,2.988C-82.806,1.689 -82.428,0.228 -82.428,-1.392C-82.428,-3.015 -82.802,-4.471 -83.55,-5.762C-84.298,-7.054 -85.321,-8.06 -86.62,-8.786M-123.43,-2.716C-123.8,-2.353 -124.355,-2.173 -125.095,-2.173L-127.598,-2.173L-127.598,-6.282L-125.095,-6.282C-124.355,-6.282 -123.8,-6.1 -123.43,-5.739C-123.06,-5.377 -122.875,-4.881 -122.875,-4.251C-122.875,-3.59 -123.06,-3.078 -123.43,-2.716M-119.698,-1.465C-119.076,-2.33 -118.765,-3.314 -118.765,-4.416C-118.765,-5.392 -118.994,-6.278 -119.45,-7.074C-119.906,-7.869 -120.595,-8.494 -121.517,-8.95C-122.438,-9.407 -123.552,-9.636 -124.859,-9.636L-131.637,-9.636L-131.637,6.944L-127.598,6.944L-127.598,0.685L-126.63,0.685L-123.181,6.944L-118.623,6.944L-122.449,0.379C-121.237,0.016 -120.32,-0.598 -119.698,-1.465" style="fill:white;fill-rule:nonzero;"/>
        </g>
        <g transform="matrix(5.55556,0,0,5.55556,82729.1,-1893.28)">
            <path d="M0,31.667C-1.991,33.745 -4.425,34.783 -7.286,34.783C-10.147,34.783 -12.58,33.73 -14.572,31.626C-16.563,29.52 -17.562,26.67 -17.562,23.077C-17.562,19.483 -16.563,16.664 -14.572,14.612C-12.58,12.564 -10.147,11.54 -7.286,11.54C-4.425,11.54 -1.991,12.579 0,14.655C1.991,16.733 2.991,19.568 2.991,23.16C2.991,26.755 1.991,29.591 0,31.667M-49.875,31.626C-51.896,33.73 -54.339,34.783 -57.203,34.783C-60.065,34.783 -62.496,33.745 -64.489,31.667C-66.481,29.591 -67.477,26.755 -67.477,23.16C-67.477,19.568 -66.481,16.733 -64.489,14.655C-62.496,12.579 -60.065,11.54 -57.203,11.54C-54.283,11.54 -51.828,12.564 -49.832,14.612C-47.842,16.664 -46.844,19.483 -46.844,23.077C-46.844,26.67 -47.855,29.52 -49.875,31.626M-99.314,31.835C-101.252,33.857 -103.596,34.868 -106.347,34.868C-109.098,34.868 -111.386,33.857 -113.21,31.835C-115.034,29.814 -115.946,26.923 -115.946,23.16C-115.946,19.343 -115.021,16.437 -113.167,14.444C-111.315,12.452 -108.986,11.455 -106.177,11.455C-103.427,11.455 -101.11,12.465 -99.229,14.486C-97.349,16.508 -96.409,19.401 -96.409,23.16C-96.409,26.923 -97.376,29.814 -99.314,31.835M-147.878,31.667C-149.871,33.745 -152.299,34.783 -155.164,34.783C-158.026,34.783 -160.455,33.73 -162.449,31.626C-164.442,29.52 -165.437,26.67 -165.437,23.077C-165.437,19.483 -164.442,16.664 -162.449,14.612C-160.455,12.564 -158.026,11.54 -155.164,11.54C-152.299,11.54 -149.871,12.579 -147.878,14.655C-145.885,16.733 -144.887,19.568 -144.887,23.16C-144.887,26.755 -145.885,29.591 -147.878,31.667M-225.267,31.835C-227.205,33.857 -229.549,34.868 -232.3,34.868C-235.051,34.868 -237.339,33.857 -239.164,31.835C-240.987,29.814 -241.899,26.923 -241.899,23.16C-241.899,19.343 -240.974,16.437 -239.12,14.444C-237.269,12.452 -234.94,11.455 -232.131,11.455C-229.38,11.455 -227.064,12.465 -225.182,14.486C-223.303,16.508 -222.363,19.401 -222.363,23.16C-222.363,26.923 -223.33,29.814 -225.267,31.835M2.991,-0.335L2.991,6.317C1.638,4.128 -0.279,2.36 -2.78,1.012C-5.281,-0.335 -8.183,-1.01 -11.5,-1.01C-15.374,-1.01 -18.881,-0.026 -22.021,1.938C-25.168,3.904 -27.655,6.711 -29.477,10.36C-31.244,13.89 -32.141,17.976 -32.202,22.608C-32.256,17.976 -33.16,13.89 -34.927,10.36C-36.756,6.711 -39.236,3.904 -42.381,1.938C-45.525,-0.026 -49.034,-1.01 -52.906,-1.01C-56.166,-1.01 -59.055,-0.335 -61.581,1.012C-64.109,2.36 -66.044,4.128 -67.393,6.317L-67.393,-15.664L-81.795,-15.664L-81.795,21.688C-81.992,17.465 -83.042,13.7 -84.954,10.401C-87.088,6.725 -90.008,3.904 -93.714,1.938C-97.42,-0.026 -101.575,-1.01 -106.177,-1.01C-110.783,-1.01 -114.935,-0.026 -118.641,1.938C-122.347,3.904 -125.267,6.725 -127.402,10.401C-129.156,13.426 -130.175,16.846 -130.487,20.648L-130.487,-15.664L-144.887,-15.664L-144.887,6.149C-146.35,3.959 -148.355,2.22 -150.91,0.927C-153.466,-0.363 -156.288,-1.01 -159.374,-1.01C-163.249,-1.01 -166.758,-0.026 -169.901,1.938C-173.045,3.904 -175.531,6.711 -177.355,10.36C-177.907,11.464 -178.365,12.63 -178.75,13.842L-178.75,-0.841C-181.839,-0.841 -184.646,-0.097 -187.171,1.391C-189.7,2.879 -191.805,4.915 -193.49,7.496L-193.49,-0.335L-207.89,-0.335L-207.89,19.837C-208.275,16.358 -209.278,13.21 -210.907,10.401C-213.041,6.725 -215.962,3.904 -219.667,1.938C-222.702,0.33 -226.043,-0.61 -229.679,-0.902L-221.183,-4.462L-221.183,-15.664L-241.48,-5.894L-241.48,0.563C-242.55,0.951 -243.59,1.405 -244.594,1.938C-248.3,3.904 -251.22,6.725 -253.355,10.401C-255.489,14.08 -256.553,18.334 -256.553,23.16C-256.553,24.29 -256.49,25.382 -256.378,26.446L-271.909,26.446C-273.086,28.917 -274.758,30.796 -276.918,32.088C-279.08,33.381 -281.538,34.025 -284.289,34.025C-288.725,34.025 -292.317,32.482 -295.068,29.394C-297.818,26.305 -299.195,22.179 -299.195,17.014C-299.195,11.848 -297.818,7.721 -295.068,4.633C-292.317,1.547 -288.725,0.002 -284.289,0.002C-281.538,0.002 -279.08,0.647 -276.918,1.938C-274.758,3.23 -273.086,5.111 -271.909,7.581L-256.076,7.581C-257.758,1.18 -261.1,-3.874 -266.096,-7.579C-271.095,-11.285 -277.102,-13.137 -284.12,-13.137C-289.846,-13.137 -294.969,-11.86 -299.488,-9.305C-304.01,-6.749 -307.531,-3.185 -310.057,1.391C-312.586,5.967 -313.849,11.174 -313.849,17.014C-313.849,22.854 -312.586,28.046 -310.057,32.594C-307.531,37.141 -304.01,40.693 -299.488,43.246C-294.969,45.803 -289.846,47.078 -284.12,47.078C-277.102,47.078 -271.095,45.24 -266.096,41.563C-261.289,38.025 -258.03,33.213 -256.29,27.154C-255.864,30.406 -254.906,33.347 -253.395,35.962C-251.291,39.613 -248.398,42.419 -244.721,44.385C-241.046,46.35 -236.902,47.331 -232.3,47.331C-227.695,47.331 -223.527,46.35 -219.794,44.385C-216.06,42.419 -213.112,39.597 -210.95,35.92C-209.296,33.104 -208.279,29.948 -207.89,26.456L-207.89,46.658L-193.49,46.658L-193.49,24.845C-193.49,20.972 -192.592,18.264 -190.794,16.718C-188.998,15.174 -186.303,14.402 -182.708,14.402L-178.924,14.402C-179.697,17.046 -180.091,19.934 -180.091,23.077C-180.091,27.906 -179.178,32.16 -177.355,35.836C-175.531,39.514 -173.045,42.35 -169.901,44.341C-166.758,46.335 -163.249,47.331 -159.374,47.331C-156.063,47.331 -153.155,46.658 -150.657,45.31C-148.158,43.963 -146.236,42.166 -144.887,39.921L-144.887,46.658L-130.487,46.658L-130.487,25.715C-130.177,29.546 -129.171,32.966 -127.442,35.962C-125.338,39.613 -122.446,42.419 -118.767,44.385C-115.092,46.35 -110.949,47.331 -106.347,47.331C-101.742,47.331 -97.573,46.35 -93.84,44.385C-90.107,42.419 -87.159,39.597 -84.996,35.92C-83.057,32.617 -81.992,28.846 -81.795,24.614L-81.795,46.658L-67.393,46.658L-67.393,40.089C-65.991,42.279 -64.054,44.035 -61.581,45.352C-59.113,46.67 -56.22,47.331 -52.906,47.331C-49.034,47.331 -45.525,46.335 -42.381,44.341C-39.236,42.35 -36.756,39.514 -34.927,35.836C-33.16,32.281 -32.256,28.18 -32.202,23.547C-32.141,28.18 -31.244,32.281 -29.477,35.836C-27.655,39.514 -25.168,42.35 -22.021,44.341C-18.881,46.335 -15.401,47.331 -11.581,47.331C-8.271,47.331 -5.362,46.658 -2.868,45.31C-0.367,43.963 1.584,42.194 2.991,40.004L2.991,46.658L17.392,46.658L17.392,-0.335L2.991,-0.335Z" style="fill:white;fill-rule:nonzero;"/>
        </g>
        <g transform="matrix(5.55556,0,0,5.55556,82161.1,-2275.05)">
            <path d="M0,-57.332C-0.545,-56.812 -1.306,-56.787 -1.712,-56.817L-2.481,-56.875L-2.877,-56.213C-4.122,-54.13 -7.019,-48.427 -7.019,-40.476L-7.019,-40.173C-6.974,-34.975 -6.338,-31.746 -5.773,-28.874C-5.206,-25.954 -4.619,-22.933 -4.619,-18.173C-4.619,6.777 -22.901,11.826 -33.823,14.843C-36.148,15.485 -37.983,15.992 -39.29,16.595C-42.369,17.963 -44.558,20.237 -45.751,21.724C-46.942,20.238 -49.127,17.965 -52.196,16.602C-53.519,15.992 -55.354,15.485 -57.678,14.843C-68.601,11.826 -86.882,6.777 -86.882,-18.173C-86.882,-22.933 -86.296,-25.954 -85.724,-28.897C-85.163,-31.745 -84.527,-34.973 -84.483,-40.184L-84.483,-40.476C-84.483,-48.43 -87.379,-54.131 -88.624,-56.213L-89.02,-56.875L-89.79,-56.817C-90.196,-56.787 -90.957,-56.812 -91.497,-57.328C-91.962,-57.775 -92.224,-58.346 -92.217,-58.893C-92.213,-59.175 -92.135,-59.576 -91.787,-59.906C-91.138,-60.438 -80.333,-69.288 -80.16,-69.428L-80.079,-69.499C-79.239,-70.297 -77.693,-70.296 -76.853,-69.509C-76.506,-69.171 -76.304,-68.663 -76.293,-68.11C-76.298,-68.092 -76.304,-68.074 -76.309,-68.055C-76.332,-67.975 -76.354,-67.894 -76.373,-67.811L-76.521,-67.128L-76.017,-66.644C-75.626,-66.27 -75.15,-65.801 -75.126,-65.778C-74.315,-65.017 -72.871,-64.625 -71.266,-64.729C-69.973,-64.813 -67.963,-65.258 -65.725,-66.904C-63.277,-68.704 -62.726,-72.392 -62.726,-73.542C-62.726,-73.749 -62.726,-73.964 -62.816,-74.242L-63.011,-74.848L-63.617,-75.046C-64.629,-75.375 -65.283,-76.293 -65.283,-77.384C-65.283,-78.777 -64.124,-79.909 -62.7,-79.909L-28.802,-79.909C-27.377,-79.909 -26.219,-78.777 -26.219,-77.384C-26.219,-76.293 -26.872,-75.375 -27.884,-75.046L-28.487,-74.849L-28.684,-74.247C-28.776,-73.966 -28.776,-73.741 -28.776,-73.542C-28.776,-72.392 -28.224,-68.704 -25.776,-66.904C-23.539,-65.258 -21.528,-64.813 -20.236,-64.729C-18.631,-64.625 -17.187,-65.017 -16.353,-65.799C-16.351,-65.801 -15.875,-66.271 -15.484,-66.645L-14.982,-67.127L-15.128,-67.808C-15.146,-67.893 -15.169,-67.975 -15.193,-68.057C-15.198,-68.075 -15.204,-68.093 -15.209,-68.111C-15.198,-68.664 -14.996,-69.171 -14.667,-69.492C-13.809,-70.295 -12.263,-70.299 -11.422,-69.499L-11.346,-69.432C-11.169,-69.288 -0.364,-60.438 0.286,-59.906C0.634,-59.576 0.712,-59.175 0.716,-58.893C0.723,-58.346 0.461,-57.775 0,-57.332M1.947,-61.768L1.896,-61.811C-0.724,-63.957 -9.057,-70.783 -9.74,-71.341C-11.54,-73.014 -14.566,-73.005 -16.39,-71.296C-17.225,-70.482 -17.704,-69.304 -17.704,-68.065C-17.704,-68.032 -17.703,-68.001 -17.702,-67.97C-17.917,-67.76 -18.082,-67.598 -18.082,-67.597C-18.497,-67.21 -21.097,-66.559 -24.299,-68.913C-25.585,-69.859 -26.117,-71.931 -26.247,-73.051C-24.708,-73.908 -23.724,-75.55 -23.724,-77.384C-23.724,-80.152 -26.002,-82.404 -28.802,-82.404L-62.7,-82.404C-65.499,-82.404 -67.777,-80.152 -67.777,-77.384C-67.777,-75.551 -66.793,-73.908 -65.254,-73.051C-65.385,-71.931 -65.917,-69.859 -67.202,-68.914C-70.406,-66.558 -73.007,-67.21 -73.397,-67.576C-73.397,-67.576 -73.573,-67.749 -73.8,-67.971C-73.799,-68.001 -73.798,-68.033 -73.798,-68.065C-73.798,-69.304 -74.277,-70.482 -75.13,-71.313C-76.936,-73.006 -79.961,-73.014 -81.761,-71.341C-82.444,-70.783 -90.777,-63.957 -93.397,-61.811L-93.448,-61.768C-94.248,-61.038 -94.696,-60.029 -94.711,-58.926C-94.728,-57.692 -94.187,-56.454 -93.223,-55.527C-92.483,-54.821 -91.507,-54.407 -90.42,-54.327C-89.293,-52.268 -86.978,-47.212 -86.978,-40.476L-86.978,-40.194C-87.02,-35.227 -87.605,-32.254 -88.177,-29.35C-88.767,-26.313 -89.377,-23.173 -89.377,-18.173C-89.377,8.676 -69.188,14.252 -58.342,17.247C-56.216,17.835 -54.379,18.342 -53.224,18.874C-49.194,20.665 -46.861,24.434 -46.84,24.47L-46.436,25.072L-45.729,25.072L-45.028,25.07L-44.663,24.472C-44.64,24.435 -42.307,20.665 -38.261,18.867C-37.123,18.342 -35.286,17.835 -33.16,17.247C-22.313,14.252 -2.125,8.676 -2.125,-18.173C-2.125,-23.173 -2.735,-26.313 -3.33,-29.379C-3.896,-32.255 -4.482,-35.229 -4.524,-40.184L-4.524,-40.476C-4.524,-47.135 -2.338,-52.054 -1.084,-54.327C0.005,-54.407 0.981,-54.821 1.726,-55.531C2.685,-56.454 3.227,-57.692 3.21,-58.926C3.195,-60.029 2.746,-61.038 1.947,-61.768" style="fill:white;fill-rule:nonzero;"/>
        </g>
        <g transform="matrix(5.55556,0,0,5.55556,81891.1,-2493.84)">
            <path d="M0,5.112L-1.885,5.112L-1.885,0.942C-1.885,0.422 -1.462,0 -0.943,0C-0.423,0 0,0.422 0,0.942L0,5.112ZM-0.943,-1.996C-2.563,-1.996 -3.881,-0.678 -3.881,0.942L-3.881,7.108L1.996,7.108L1.996,0.942C1.996,-0.678 0.678,-1.996 -0.943,-1.996" style="fill:white;fill-rule:nonzero;"/>
        </g>
        <g transform="matrix(5.55556,0,0,5.55556,81933.2,-2493.84)">
            <path d="M0,5.112L-1.885,5.112L-1.885,0.942C-1.885,0.422 -1.462,0 -0.943,0C-0.423,0 0,0.422 0,0.942L0,5.112ZM-0.943,-1.996C-2.563,-1.996 -3.881,-0.678 -3.881,0.942L-3.881,7.108L1.996,7.108L1.996,0.942C1.996,-0.678 0.678,-1.996 -0.943,-1.996" style="fill:white;fill-rule:nonzero;"/>
        </g>
        <g transform="matrix(5.55556,0,0,5.55556,81935,-2663.54)">
            <path d="M0,61.773L0,52.582C0,49.792 -2.27,47.522 -5.06,47.522C-7.85,47.522 -10.12,49.792 -10.12,52.582L-10.12,61.773L-17.308,61.773L-17.308,44.684L7.188,44.684L7.188,61.773L0,61.773ZM-7.762,61.773L-7.762,52.582C-7.762,51.092 -6.55,49.881 -5.06,49.881C-3.57,49.881 -2.358,51.092 -2.358,52.582L-2.358,61.773L-7.762,61.773ZM-12.818,24.366C-12.818,24.109 -12.806,23.853 -12.794,23.597L2.674,23.597C2.686,23.853 2.698,24.109 2.698,24.366C2.698,30.31 3.564,36.688 5.275,42.325L-15.395,42.325C-13.685,36.687 -12.818,30.309 -12.818,24.366M-9.21,21.225L-12.9,21.225L-12.9,15.998L-9.21,15.998L-9.21,21.225ZM-3.178,21.225L-6.942,21.225L-6.942,13.944L-3.178,13.944L-3.178,21.225ZM2.779,21.225L-0.911,21.225L-0.911,15.998L2.779,15.998L2.779,21.225ZM9.546,50.903L12.497,46.18C13.463,46.06 14.761,45.851 16.408,46.801C19.281,48.46 18.59,50.342 21.463,52.001C22.666,52.695 23.524,52.764 24.206,52.805L25.665,50.278C24.855,50.322 24.003,50.297 22.707,49.548C19.834,47.89 20.566,45.937 17.693,44.278C16.222,43.429 15.03,43.507 14.107,43.603L15.628,41.169C16.426,41.095 17.559,41.116 18.967,41.929C21.84,43.588 21.121,45.519 23.994,47.177C25.335,47.952 26.166,48.013 27.001,47.963L28.562,45.261C27.847,45.333 26.608,45.508 24.977,44.567C22.104,42.908 22.799,41.02 19.926,39.361C18.764,38.691 17.958,38.599 17.221,38.619L17.727,37.81L15.881,36.657L9.546,46.795L9.546,42.325L7.756,42.325C7.541,41.647 7.337,40.448 7.148,39.763L12.426,31.283C13.387,31.163 14.672,30.973 16.295,31.91C19.167,33.568 18.477,35.45 21.349,37.109C22.552,37.803 23.41,37.872 24.092,37.913L25.551,35.387C24.742,35.431 23.889,35.405 22.593,34.657C19.72,32.998 20.452,31.045 17.579,29.386C16.127,28.548 14.947,28.614 14.029,28.708L15.544,26.274C16.339,26.203 17.462,26.234 18.853,27.037C21.726,28.696 21.007,30.627 23.88,32.286C25.221,33.06 26.052,33.122 26.888,33.072L28.448,30.369C27.733,30.441 26.495,30.617 24.864,29.675C21.991,28.016 22.685,26.128 19.812,24.47C18.661,23.805 17.86,23.71 17.128,23.728L17.728,22.765L15.88,21.615L6.418,36.817C5.789,33.963 5.378,31.063 5.189,28.132L12.408,16.578C13.381,16.462 14.709,16.208 16.408,17.189C19.281,18.847 18.59,20.729 21.463,22.388C22.666,23.082 23.524,23.151 24.206,23.192L25.665,20.666C24.855,20.71 24.003,20.684 22.707,19.936C19.834,18.277 20.566,16.324 17.693,14.665C16.175,13.789 14.953,13.9 14.019,14L15.54,11.565C16.341,11.481 17.506,11.473 18.967,12.316C21.84,13.975 21.121,15.906 23.994,17.565C25.335,18.339 26.166,18.4 27.001,18.35L28.562,15.648C27.847,15.72 26.608,15.896 24.977,14.954C22.104,13.295 22.799,11.407 19.926,9.748C18.719,9.052 17.897,8.982 17.136,9.011L17.727,8.065L15.881,6.911L5.053,24.241C5.05,24.026 5.043,23.811 5.033,23.597L5.047,23.597L5.047,21.238L5.048,21.225L5.047,21.225L5.047,13.73L-0.91,13.73L-0.91,11.676L-3.971,11.676L-3.971,7.292C-3.19,6.705 -2.168,5.844 -0.232,5.844C3.086,5.844 3.428,7.819 6.746,7.819C8.135,7.819 8.912,7.449 9.523,7.144L9.523,4.226C8.844,4.669 8.093,5.073 6.597,5.073C3.279,5.073 2.936,3.016 -0.381,3.016C-2.194,3.016 -3.202,3.771 -3.971,4.331L-3.971,1.537C-3.328,1.05 -2.297,0.344 -0.452,0.344C2.865,0.344 3.208,2.376 6.525,2.376C8.075,2.376 8.825,2.014 9.523,1.553L9.523,-1.568C8.94,-1.148 7.955,-0.376 6.072,-0.376C2.755,-0.376 2.412,-2.359 -0.906,-2.359C-2.504,-2.359 -3.253,-1.899 -3.971,-1.421L-3.971,-2.268L-6.149,-2.268L-6.149,11.676L-9.21,11.676L-9.21,13.73L-15.167,13.73L-15.167,23.597L-15.153,23.597C-15.162,23.812 -15.17,24.027 -15.173,24.242L-26,6.911L-27.847,8.065L-27.255,9.011C-28.017,8.982 -28.839,9.052 -30.046,9.748C-32.919,11.407 -32.224,13.295 -35.097,14.954C-36.728,15.896 -37.967,15.72 -38.682,15.648L-37.121,18.35C-36.286,18.4 -35.455,18.339 -34.114,17.565C-31.241,15.906 -31.96,13.975 -29.087,12.316C-27.626,11.473 -26.461,11.481 -25.66,11.565L-24.139,14C-25.073,13.9 -26.295,13.789 -27.813,14.665C-30.686,16.324 -29.954,18.277 -32.827,19.936C-34.123,20.684 -34.975,20.71 -35.785,20.666L-34.326,23.192C-33.644,23.151 -32.786,23.082 -31.583,22.388C-28.71,20.729 -29.401,18.847 -26.528,17.189C-24.829,16.208 -23.502,16.462 -22.528,16.578L-15.309,28.132C-15.497,31.04 -15.902,33.918 -16.523,36.75L-26.001,21.613L-27.846,22.768L-27.245,23.728C-27.978,23.71 -28.78,23.804 -29.932,24.47C-32.805,26.128 -32.111,28.016 -34.984,29.675C-36.615,30.617 -37.853,30.441 -38.568,30.369L-37.008,33.072C-36.172,33.122 -35.342,33.06 -34,32.286C-31.127,30.627 -31.846,28.696 -28.973,27.037C-27.574,26.229 -26.446,26.203 -25.65,26.276L-24.125,28.71C-25.047,28.615 -26.234,28.541 -27.699,29.386C-30.572,31.045 -29.84,32.998 -32.713,34.657C-34.009,35.405 -34.862,35.431 -35.671,35.387L-34.212,37.913C-33.53,37.872 -32.672,37.803 -31.47,37.109C-28.597,35.45 -29.287,33.568 -26.415,31.91C-24.772,30.962 -23.476,31.168 -22.512,31.287L-17.249,39.693C-17.444,40.401 -17.653,41.624 -17.876,42.325L-19.666,42.325L-19.666,46.795L-26,36.657L-27.847,37.81L-27.341,38.619C-28.078,38.599 -28.884,38.69 -30.046,39.361C-32.919,41.02 -32.224,42.908 -35.097,44.567C-36.728,45.508 -37.967,45.333 -38.682,45.261L-37.121,47.963C-36.286,48.013 -35.455,47.952 -34.114,47.177C-31.241,45.519 -31.96,43.588 -29.087,41.929C-27.679,41.116 -26.546,41.094 -25.748,41.169L-24.227,43.603C-25.15,43.507 -26.342,43.429 -27.813,44.278C-30.686,45.937 -29.954,47.89 -32.827,49.548C-34.123,50.297 -34.975,50.322 -35.785,50.278L-34.326,52.805C-33.644,52.764 -32.786,52.695 -31.583,52.001C-28.71,50.342 -29.401,48.46 -26.528,46.801C-24.881,45.851 -23.583,46.06 -22.618,46.18L-19.666,50.903L-19.666,61.773L-42.678,61.773C-42.451,62.594 -42.199,63.38 -41.924,64.132L31.804,64.132C32.079,63.38 32.331,62.594 32.558,61.773L9.546,61.773L9.546,50.903Z" style="fill:white;fill-rule:nonzero;"/>
        </g>
        <g transform="matrix(5.55556,0,0,5.55556,81993.5,-2208.24)">
            <path d="M0,-4.77C-2.343,-4.77 -3.563,-4.041 -4.64,-3.397C-5.611,-2.817 -6.378,-2.359 -8.07,-2.359C-9.762,-2.359 -10.529,-2.817 -11.5,-3.397C-12.576,-4.041 -13.797,-4.77 -16.139,-4.77C-18.482,-4.77 -19.702,-4.041 -20.779,-3.397C-21.75,-2.817 -22.516,-2.359 -24.208,-2.359C-25.9,-2.359 -26.668,-2.817 -27.638,-3.397C-28.715,-4.041 -29.935,-4.77 -32.278,-4.77C-34.621,-4.77 -35.841,-4.041 -36.918,-3.397C-37.237,-3.207 -37.536,-3.032 -37.851,-2.879C-36.913,-2.47 -35.969,-2.102 -35.027,-1.765C-34.315,-2.146 -33.563,-2.411 -32.278,-2.411C-30.587,-2.411 -29.819,-1.953 -28.849,-1.373C-27.772,-0.729 -26.552,0 -24.208,0C-21.866,0 -20.646,-0.729 -19.569,-1.373C-18.598,-1.953 -17.831,-2.411 -16.139,-2.411C-14.448,-2.411 -13.681,-1.953 -12.71,-1.373C-11.633,-0.729 -10.413,0 -8.07,0C-5.727,0 -4.507,-0.729 -3.43,-1.373C-2.459,-1.953 -1.692,-2.411 0,-2.411C1.54,-2.411 2.315,-2.03 3.173,-1.525C4.158,-1.863 5.148,-2.233 6.133,-2.645C5.588,-2.833 5.14,-3.098 4.64,-3.397C3.563,-4.041 2.343,-4.77 0,-4.77" style="fill:white;fill-rule:nonzero;"/>
        </g>
        <g transform="matrix(5.55556,0,0,5.55556,82075,-2248.87)">
            <path d="M0,-5.786C-2.077,-4.703 -4.225,-3.583 -6.693,-3.583C-8.441,-3.583 -9.264,-3.978 -10.216,-4.436C-11.115,-4.868 -12.124,-5.346 -13.804,-5.482C-14.034,-5.5 -14.28,-5.511 -14.537,-5.515C-14.614,-5.517 -14.682,-5.522 -14.762,-5.522C-17.105,-5.522 -18.325,-4.793 -19.402,-4.15C-20.373,-3.569 -21.14,-3.111 -22.831,-3.111C-24.524,-3.111 -25.291,-3.57 -26.262,-4.15C-27.339,-4.793 -28.559,-5.522 -30.902,-5.522C-33.295,-5.522 -34.494,-4.79 -35.552,-4.144C-36.497,-3.567 -37.243,-3.111 -38.973,-3.111C-40.665,-3.111 -41.432,-3.569 -42.403,-4.15C-43.48,-4.793 -44.7,-5.522 -47.043,-5.522C-49.387,-5.522 -50.607,-4.793 -51.684,-4.15C-52.654,-3.57 -53.422,-3.111 -55.114,-3.111C-56.806,-3.111 -57.573,-3.569 -58.544,-4.15C-59.62,-4.793 -60.841,-5.522 -63.184,-5.522C-63.627,-5.522 -64.031,-5.496 -64.401,-5.449C-63.855,-4.626 -63.274,-3.86 -62.663,-3.146C-61.325,-3.06 -60.618,-2.642 -59.754,-2.125C-58.677,-1.482 -57.457,-0.753 -55.114,-0.753C-52.771,-0.753 -51.55,-1.482 -50.474,-2.125C-49.503,-2.706 -48.735,-3.164 -47.043,-3.164C-45.351,-3.164 -44.584,-2.705 -43.613,-2.125C-42.536,-1.482 -41.316,-0.753 -38.973,-0.753C-36.58,-0.753 -35.381,-1.485 -34.323,-2.131C-33.378,-2.708 -32.632,-3.164 -30.902,-3.164C-29.21,-3.164 -28.443,-2.705 -27.472,-2.125C-26.395,-1.482 -25.175,-0.753 -22.831,-0.753C-20.489,-0.753 -19.269,-1.482 -18.192,-2.125C-17.221,-2.706 -16.454,-3.164 -14.762,-3.164C-14.567,-3.164 -14.387,-3.157 -14.213,-3.148C-14.187,-3.147 -14.159,-3.146 -14.133,-3.145C-14.085,-3.141 -14.036,-3.136 -13.988,-3.131C-11.775,-2.913 -9.643,-1.431 -7.745,-0.11L-7.295,0.201C-6.666,0.726 -5.55,1.537 -4.127,2.091C-3.23,1.555 -2.353,0.965 -1.504,0.314C-3.14,0.178 -4.557,-0.672 -5.4,-1.305C-2.924,-1.605 -0.807,-2.705 1.09,-3.695C1.63,-3.976 2.14,-4.242 2.642,-4.482L2.696,-4.51C2.989,-4.669 3.267,-4.805 3.536,-4.927C4.174,-5.835 4.767,-6.816 5.307,-7.877C4.145,-7.743 2.967,-7.337 1.598,-6.597C1.067,-6.342 0.524,-6.06 0,-5.786" style="fill:white;fill-rule:nonzero;"/>
        </g>
    </g>
</svg>
