<?xml version="1.0" encoding="UTF-8" standalone="no"?>
<!DOCTYPE svg PUBLIC "-//W3C//DTD SVG 1.1//EN" "http://www.w3.org/Graphics/SVG/1.1/DTD/svg11.dtd">
<svg width="100%" height="100%" viewBox="0 0 3695 603" version="1.1" xmlns="http://www.w3.org/2000/svg" xmlns:xlink="http://www.w3.org/1999/xlink" xml:space="preserve" xmlns:serif="http://www.serif.com/" style="fill-rule:evenodd;clip-rule:evenodd;stroke-linejoin:round;stroke-miterlimit:2;">
    <g transform="matrix(1,0,0,1,-77214.2,3520.38)">
        <g transform="matrix(5.55556,0,0,5.55556,80034.9,-2983.66)">
            <path d="M0,-31.46C0.266,-32.868 0.879,-34.177 1.713,-35.334C1.342,-34.85 1.028,-34.458 0.914,-34.327L-7.29,-25.652C-7.746,-25.169 -8.154,-24.654 -8.517,-24.116L-8.415,-24.223C-8.457,-24.178 -8.495,-24.13 -8.536,-24.084C-10.94,-20.496 -11.265,-15.817 -9.246,-11.879L-1.169,3.874L15.838,3.874L1.448,-24.188C1.448,-24.189 -0.805,-27.206 0,-31.46" style="fill:white;fill-rule:nonzero;"/>
        </g>
        <g transform="matrix(5.55556,0,0,5.55556,80058.7,-3428.32)">
            <path d="M0,39.836C-0.001,39.84 -0.001,39.843 -0.002,39.847C-0.027,39.971 -0.194,40.566 -0.2,40.585C-0.415,41.281 -0.706,41.957 -1.084,42.591C-1.413,43.144 -1.922,43.854 -2.381,44.463C-2.165,44.179 -1.945,43.899 -1.703,43.637L6.597,34.64L7.728,33.414C10.927,29.722 11.59,24.42 9.341,20.035L-3.306,-4.627L-19.9,-4.575L-1.839,31.398L-0.824,33.376C0.22,35.414 0.475,37.701 0,39.836" style="fill:white;fill-rule:nonzero;"/>
        </g>
        <g transform="matrix(5.55556,0,0,5.55556,79987.5,-3234.72)">
            <path d="M0,21.108C0.007,21.098 0.013,21.087 0.02,21.076C0.383,20.538 0.791,20.023 1.247,19.54L9.451,10.865C9.564,10.733 9.879,10.342 10.249,9.858C10.27,9.829 10.287,9.797 10.308,9.769C10.347,9.716 10.393,9.669 10.433,9.616C10.891,9.008 11.4,8.298 11.73,7.745C12.108,7.11 12.398,6.434 12.613,5.738C12.619,5.719 12.786,5.125 12.812,5C12.813,4.996 12.813,4.993 12.814,4.989C13.289,2.854 13.034,0.567 11.99,-1.47L10.975,-3.449L-1.362,-28.02L-19.415,-28.02L-0.345,9.17C1.984,13.712 1.198,19.241 -2.302,22.942L-9.856,30.931C-13.685,34.981 -14.545,41.031 -11.996,46L-10.546,48.826C-10.451,49.012 -10.26,49.128 -10.053,49.128L7.372,49.074L7.368,49.066L-0.71,33.313C-2.729,29.375 -2.403,24.696 0,21.108" style="fill:rgb(188,23,52);fill-rule:nonzero;"/>
        </g>
        <g transform="matrix(5.55556,0,0,5.55556,80219.3,-3515.58)">
            <path d="M0,98.761L-19.934,59.886C-22.263,55.345 -21.477,49.814 -17.977,46.113L-8.79,36.048C-6.008,33.107 -5.384,28.712 -7.235,25.102L-20.55,-0.864L-38.313,-0.809L-32.216,11.08L-32.216,11.081L-19.569,35.743C-17.32,40.128 -17.983,45.43 -21.182,49.122L-22.313,50.348L-30.613,59.345C-30.855,59.607 -31.075,59.887 -31.291,60.171C-31.331,60.223 -31.377,60.271 -31.416,60.323C-31.437,60.352 -31.454,60.384 -31.475,60.412C-32.309,61.569 -32.921,62.878 -33.187,64.287C-33.992,68.54 -31.74,71.558 -31.739,71.559L-17.35,99.621L-17.347,99.625L-0.489,99.573C-0.075,99.572 0.19,99.131 0,98.761" style="fill:rgb(108,174,229);fill-rule:nonzero;"/>
        </g>
        <g transform="matrix(5.55556,0,0,5.55556,80397.8,-3244.3)">
            <path d="M0,-25.789L0,0L-7.17,0L-7.17,-10.352L-15.913,-10.352L-15.913,0L-23.083,0L-23.083,-25.789L-15.913,-25.789L-15.913,-16.095L-7.17,-16.095L-7.17,-25.789L0,-25.789Z" style="fill:rgb(188,23,52);fill-rule:nonzero;"/>
        </g>
        <g transform="matrix(5.55556,0,0,5.55556,80485.1,-3283.92)">
            <path d="M0,-6.255C-0.72,-7.011 -1.604,-7.389 -2.653,-7.389C-3.726,-7.389 -4.616,-7.018 -5.323,-6.274C-6.031,-5.529 -6.384,-4.487 -6.384,-3.146C-6.384,-1.829 -6.031,-0.786 -5.323,-0.018C-4.616,0.749 -3.726,1.135 -2.653,1.135C-1.604,1.135 -0.72,0.756 0,0.001C0.718,-0.755 1.078,-1.804 1.078,-3.146C1.078,-4.462 0.718,-5.499 0,-6.255M-12.547,-8.707C-11.78,-10.291 -10.732,-11.509 -9.402,-12.365C-8.073,-13.217 -6.591,-13.645 -4.958,-13.645C-3.544,-13.645 -2.324,-13.364 -1.299,-12.803C-0.276,-12.242 0.517,-11.486 1.078,-10.536L1.078,-13.389L8.249,-13.389L8.249,7.133L1.078,7.133L1.078,4.28C0.517,5.231 -0.282,5.988 -1.317,6.547C-2.355,7.11 -3.568,7.39 -4.958,7.39C-6.591,7.39 -8.073,6.963 -9.402,6.109C-10.732,5.255 -11.78,4.031 -12.547,2.433C-13.317,0.836 -13.701,-1.025 -13.701,-3.146C-13.701,-5.267 -13.317,-7.121 -12.547,-8.707" style="fill:rgb(188,23,52);fill-rule:nonzero;"/>
        </g>
        <g transform="matrix(5.55556,0,0,5.55556,80549.4,-3270.31)">
            <path d="M0,-11.158C0.878,-12.742 2.104,-13.961 3.676,-14.816C5.25,-15.669 7.048,-16.096 9.072,-16.096C11.682,-16.096 13.877,-15.383 15.657,-13.956C17.437,-12.529 18.584,-10.536 19.096,-7.975L11.487,-7.975C11.047,-9.316 10.194,-9.987 8.926,-9.987C8.024,-9.987 7.31,-9.615 6.786,-8.872C6.261,-8.128 6,-7.036 6,-5.597C6,-4.159 6.261,-3.06 6.786,-2.305C7.31,-1.548 8.024,-1.171 8.926,-1.171C10.219,-1.171 11.071,-1.841 11.487,-3.183L19.096,-3.183C18.584,-0.646 17.437,1.341 15.657,2.78C13.877,4.219 11.682,4.938 9.072,4.938C7.048,4.938 5.25,4.512 3.676,3.658C2.104,2.804 0.878,1.584 0,-0.001C-0.878,-1.586 -1.316,-3.451 -1.316,-5.597C-1.316,-7.719 -0.878,-9.572 0,-11.158" style="fill:rgb(188,23,52);fill-rule:nonzero;"/>
        </g>
        <g transform="matrix(5.55556,0,0,5.55556,80735.2,-3290.02)">
            <path d="M0,-4.06C0,-4.938 -0.293,-5.627 -0.878,-6.126C-1.463,-6.627 -2.195,-6.877 -3.073,-6.877C-3.951,-6.877 -4.671,-6.639 -5.231,-6.164C-5.792,-5.688 -6.159,-4.987 -6.329,-4.06L0,-4.06ZM7.206,-0.585L-6.365,-0.585C-6.292,0.537 -5.981,1.372 -5.432,1.921C-4.883,2.469 -4.183,2.743 -3.329,2.743C-2.135,2.743 -1.281,2.208 -0.769,1.134L6.877,1.134C6.561,2.549 5.944,3.811 5.029,4.921C4.115,6.03 2.963,6.902 1.573,7.536C0.183,8.17 -1.354,8.487 -3.036,8.487C-5.061,8.487 -6.859,8.061 -8.432,7.207C-10.005,6.353 -11.237,5.133 -12.127,3.548C-13.017,1.963 -13.462,0.098 -13.462,-2.048C-13.462,-4.194 -13.023,-6.054 -12.145,-7.626C-11.267,-9.2 -10.042,-10.412 -8.469,-11.267C-6.895,-12.12 -5.084,-12.547 -3.036,-12.547C-1.012,-12.547 0.781,-12.132 2.341,-11.302C3.901,-10.474 5.121,-9.285 5.999,-7.737C6.877,-6.188 7.316,-4.365 7.316,-2.268C7.316,-1.706 7.279,-1.146 7.206,-0.585" style="fill:rgb(188,23,52);fill-rule:nonzero;"/>
        </g>
        <g transform="matrix(5.55556,0,0,5.55556,80843.1,-3249.99)">
            <path d="M0,-18.655C1.146,-19.338 2.378,-19.68 3.694,-19.68L3.694,-12.034L1.683,-12.034C0.121,-12.034 -1.037,-11.73 -1.792,-11.12C-2.549,-10.51 -2.926,-9.449 -2.926,-7.937L-2.926,1.025L-10.097,1.025L-10.097,-19.497L-2.926,-19.497L-2.926,-15.875C-2.122,-17.046 -1.147,-17.972 0,-18.655" style="fill:rgb(188,23,52);fill-rule:nonzero;"/>
        </g>
        <g transform="matrix(5.55556,0,0,5.55556,80484.4,-3144.35)">
            <path d="M0,-6.453C-0.744,-7.233 -1.655,-7.623 -2.738,-7.623C-3.844,-7.623 -4.762,-7.24 -5.492,-6.472C-6.223,-5.704 -6.587,-4.628 -6.587,-3.245C-6.587,-1.886 -6.223,-0.81 -5.492,-0.018C-4.762,0.776 -3.844,1.171 -2.738,1.171C-1.655,1.171 -0.744,0.782 0,0.002C0.742,-0.778 1.113,-1.861 1.113,-3.245C1.113,-4.603 0.742,-5.672 0,-6.453M-12.947,-8.982C-12.154,-10.618 -11.073,-11.875 -9.702,-12.757C-8.329,-13.637 -6.801,-14.078 -5.115,-14.078C-3.656,-14.078 -2.398,-13.788 -1.34,-13.21C-0.283,-12.63 0.534,-11.851 1.113,-10.869L1.113,-13.814L8.511,-13.814L8.511,7.362L1.113,7.362L1.113,4.417C0.534,5.399 -0.29,6.179 -1.359,6.758C-2.429,7.337 -3.68,7.625 -5.115,7.625C-6.801,7.625 -8.329,7.187 -9.702,6.305C-11.073,5.424 -12.154,4.16 -12.947,2.511C-13.739,0.863 -14.136,-1.056 -14.136,-3.245C-14.136,-5.435 -13.739,-7.346 -12.947,-8.982" style="fill:rgb(207,165,91);fill-rule:nonzero;"/>
        </g>
        <g transform="matrix(5.55556,0,0,5.55556,80613,-3109.32)">
            <path d="M0,-19.251C1.183,-19.954 2.454,-20.307 3.813,-20.307L3.813,-12.419L1.737,-12.419C0.126,-12.419 -1.069,-12.104 -1.849,-11.475C-2.629,-10.846 -3.019,-9.751 -3.019,-8.191L-3.019,1.056L-10.417,1.056L-10.417,-20.119L-3.019,-20.119L-3.019,-16.382C-2.189,-17.589 -1.182,-18.546 0,-19.251" style="fill:rgb(206,165,91);fill-rule:nonzero;"/>
        </g>
        <g transform="matrix(5.55556,0,0,5.55556,80720.7,-3144.35)">
            <path d="M0,-6.453C-0.744,-7.233 -1.656,-7.623 -2.738,-7.623C-3.845,-7.623 -4.762,-7.24 -5.492,-6.472C-6.223,-5.704 -6.587,-4.628 -6.587,-3.245C-6.587,-1.886 -6.223,-0.81 -5.492,-0.018C-4.762,0.776 -3.845,1.171 -2.738,1.171C-1.656,1.171 -0.744,0.782 0,0.002C0.741,-0.778 1.113,-1.861 1.113,-3.245C1.113,-4.603 0.741,-5.672 0,-6.453M-12.947,-8.982C-12.154,-10.618 -11.073,-11.875 -9.702,-12.757C-8.33,-13.637 -6.801,-14.078 -5.115,-14.078C-3.656,-14.078 -2.397,-13.788 -1.34,-13.21C-0.283,-12.63 0.533,-11.851 1.113,-10.869L1.113,-13.814L8.511,-13.814L8.511,7.362L1.113,7.362L1.113,4.417C0.533,5.399 -0.29,6.179 -1.36,6.758C-2.429,7.337 -3.68,7.625 -5.115,7.625C-6.801,7.625 -8.33,7.187 -9.702,6.305C-11.073,5.424 -12.154,4.16 -12.947,2.511C-13.739,0.863 -14.136,-1.056 -14.136,-3.245C-14.136,-5.435 -13.739,-7.346 -12.947,-8.982" style="fill:rgb(206,165,91);fill-rule:nonzero;"/>
        </g>
        <g transform="matrix(5.55556,0,0,5.55556,80317.3,-3114.79)">
            <path d="M0,-11.774C0.743,-12.554 1.654,-12.944 2.738,-12.944C3.819,-12.944 4.731,-12.561 5.473,-11.793C6.215,-11.025 6.587,-9.949 6.587,-8.566C6.587,-7.207 6.215,-6.131 5.473,-5.339C4.731,-4.545 3.819,-4.15 2.738,-4.15C1.654,-4.15 0.743,-4.539 0,-5.319C-0.742,-6.099 -1.114,-7.182 -1.114,-8.566C-1.114,-9.924 -0.742,-10.993 0,-11.774M-5.933,5.723C-4.476,4.932 -2.86,4.437 -1.114,4.24L-1.114,-0.904C-0.509,0.078 0.315,0.858 1.358,1.437C2.404,2.016 3.643,2.304 5.077,2.304C6.762,2.304 8.292,1.866 9.663,0.984C11.034,0.103 12.116,-1.161 12.909,-2.81C13.701,-4.458 14.097,-6.377 14.097,-8.566C14.097,-10.756 13.701,-12.667 12.909,-14.303C12.116,-15.939 11.034,-17.196 9.663,-18.078C8.292,-18.958 6.762,-19.399 5.077,-19.399C3.643,-19.399 2.397,-19.109 1.34,-18.531C0.283,-17.951 -0.535,-17.172 -1.114,-16.19L-1.114,-19.135L-8.511,-19.135L-8.511,7.625C-7.751,6.883 -6.894,6.244 -5.933,5.723" style="fill:rgb(207,165,91);fill-rule:nonzero;"/>
        </g>
        <g transform="matrix(5.55556,0,0,5.55556,80270.4,-2988.62)">
            <path d="M0,-11.158C0.878,-12.743 2.104,-13.963 3.676,-14.816C5.249,-15.669 7.047,-16.096 9.072,-16.096C11.681,-16.096 13.876,-15.383 15.657,-13.956C17.437,-12.529 18.583,-10.535 19.095,-7.976L11.486,-7.976C11.047,-9.316 10.193,-9.988 8.925,-9.988C8.023,-9.988 7.309,-9.615 6.786,-8.871C6.261,-8.127 5.999,-7.036 5.999,-5.598C5.999,-4.158 6.261,-3.06 6.786,-2.306C7.309,-1.549 8.023,-1.171 8.925,-1.171C10.218,-1.171 11.071,-1.841 11.486,-3.183L19.095,-3.183C18.583,-0.646 17.437,1.341 15.657,2.78C13.876,4.219 11.681,4.938 9.072,4.938C7.047,4.938 5.249,4.512 3.676,3.657C2.104,2.805 0.878,1.585 0,-0.001C-0.878,-1.586 -1.317,-3.451 -1.317,-5.598C-1.317,-7.719 -0.878,-9.573 0,-11.158" style="fill:rgb(108,174,229);fill-rule:nonzero;"/>
        </g>
        <g transform="matrix(5.55556,0,0,5.55556,80444,-2968.3)">
            <path d="M0,-18.657C1.146,-19.339 2.378,-19.681 3.695,-19.681L3.695,-12.036L1.683,-12.036C0.122,-12.036 -1.037,-11.731 -1.792,-11.121C-2.548,-10.511 -2.927,-9.451 -2.927,-7.939L-2.927,1.024L-10.097,1.024L-10.097,-19.498L-2.927,-19.498L-2.927,-15.877C-2.122,-17.047 -1.146,-17.973 0,-18.657" style="fill:rgb(108,174,229);fill-rule:nonzero;"/>
        </g>
        <g transform="matrix(5.55556,0,0,5.55556,80541.9,-3008.34)">
            <path d="M0,-4.06C0,-4.938 -0.292,-5.627 -0.878,-6.128C-1.462,-6.628 -2.195,-6.877 -3.073,-6.877C-3.95,-6.877 -4.67,-6.639 -5.231,-6.164C-5.792,-5.688 -6.158,-4.987 -6.329,-4.06L0,-4.06ZM7.207,-0.585L-6.365,-0.585C-6.292,0.537 -5.981,1.372 -5.431,1.921C-4.884,2.47 -4.183,2.744 -3.329,2.744C-2.135,2.744 -1.28,2.208 -0.768,1.133L6.877,1.133C6.56,2.549 5.944,3.811 5.029,4.919C4.116,6.03 2.963,6.902 1.573,7.536C0.183,8.171 -1.353,8.487 -3.036,8.487C-5.06,8.487 -6.859,8.061 -8.432,7.206C-10.005,6.354 -11.236,5.134 -12.126,3.548C-13.016,1.963 -13.462,0.098 -13.462,-2.049C-13.462,-4.194 -13.022,-6.054 -12.145,-7.627C-11.267,-9.2 -10.041,-10.414 -8.469,-11.267C-6.896,-12.12 -5.084,-12.547 -3.036,-12.547C-1.012,-12.547 0.781,-12.132 2.341,-11.304C3.902,-10.474 5.121,-9.285 6,-7.736C6.877,-6.188 7.316,-4.365 7.316,-2.268C7.316,-1.706 7.28,-1.146 7.207,-0.585" style="fill:rgb(108,174,229);fill-rule:nonzero;"/>
        </g>
        <g transform="matrix(5.55556,0,0,5.55556,80594.6,-2988.62)">
            <path d="M0,-11.158C0.878,-12.743 2.104,-13.963 3.676,-14.816C5.249,-15.669 7.047,-16.096 9.072,-16.096C11.681,-16.096 13.876,-15.383 15.657,-13.956C17.437,-12.529 18.583,-10.535 19.095,-7.976L11.486,-7.976C11.047,-9.316 10.193,-9.988 8.925,-9.988C8.023,-9.988 7.309,-9.615 6.786,-8.871C6.261,-8.127 6,-7.036 6,-5.598C6,-4.158 6.261,-3.06 6.786,-2.306C7.309,-1.549 8.023,-1.171 8.925,-1.171C10.218,-1.171 11.071,-1.841 11.486,-3.183L19.095,-3.183C18.583,-0.646 17.437,1.341 15.657,2.78C13.876,4.219 11.681,4.938 9.072,4.938C7.047,4.938 5.249,4.512 3.676,3.657C2.104,2.805 0.878,1.585 0,-0.001C-0.878,-1.586 -1.317,-3.451 -1.317,-5.598C-1.317,-7.719 -0.878,-9.573 0,-11.158" style="fill:rgb(108,174,229);fill-rule:nonzero;"/>
        </g>
        <g transform="matrix(5.55556,0,0,5.55556,80780.3,-3008.34)">
            <path d="M0,-4.06C0,-4.938 -0.292,-5.627 -0.878,-6.128C-1.462,-6.628 -2.195,-6.877 -3.072,-6.877C-3.95,-6.877 -4.67,-6.639 -5.23,-6.164C-5.792,-5.688 -6.158,-4.987 -6.328,-4.06L0,-4.06ZM7.207,-0.585L-6.365,-0.585C-6.292,0.537 -5.981,1.372 -5.431,1.921C-4.883,2.47 -4.183,2.744 -3.329,2.744C-2.135,2.744 -1.28,2.208 -0.768,1.133L6.877,1.133C6.561,2.549 5.944,3.811 5.03,4.919C4.116,6.03 2.963,6.902 1.573,7.536C0.183,8.171 -1.353,8.487 -3.036,8.487C-5.06,8.487 -6.858,8.061 -8.432,7.206C-10.005,6.354 -11.236,5.134 -12.126,3.548C-13.016,1.963 -13.462,0.098 -13.462,-2.049C-13.462,-4.194 -13.022,-6.054 -12.145,-7.627C-11.267,-9.2 -10.041,-10.414 -8.469,-11.267C-6.895,-12.12 -5.084,-12.547 -3.036,-12.547C-1.012,-12.547 0.781,-12.132 2.342,-11.304C3.902,-10.474 5.122,-9.285 6,-7.736C6.877,-6.188 7.317,-4.365 7.317,-2.268C7.317,-1.706 7.28,-1.146 7.207,-0.585" style="fill:rgb(108,174,229);fill-rule:nonzero;"/>
        </g>
        <g transform="matrix(5.55556,0,0,5.55556,80888.2,-2968.3)">
            <path d="M0,-18.657C1.146,-19.339 2.378,-19.681 3.695,-19.681L3.695,-12.036L1.683,-12.036C0.122,-12.036 -1.037,-11.731 -1.792,-11.121C-2.548,-10.511 -2.926,-9.451 -2.926,-7.939L-2.926,1.024L-10.097,1.024L-10.097,-19.498L-2.926,-19.498L-2.926,-15.877C-2.122,-17.047 -1.147,-17.973 0,-18.657" style="fill:rgb(108,174,229);fill-rule:nonzero;"/>
        </g>
        <g transform="matrix(5.55556,0,0,5.55556,79044.4,-3001.32)">
            <path d="M0,-2.779C-0.38,-2.415 -0.958,-2.233 -1.734,-2.233L-3.943,-2.233L-3.943,-6.413L-1.734,-6.413C-0.958,-6.413 -0.38,-6.231 0,-5.867C0.38,-5.502 0.57,-4.988 0.57,-4.324C0.57,-3.658 0.38,-3.142 0,-2.779M1.948,-9.001C1.029,-9.46 -0.095,-9.691 -1.425,-9.691L-8.005,-9.691L-8.005,6.983L-3.943,6.983L-3.943,0.998L-1.425,0.998C-0.063,0.998 1.076,0.752 1.995,0.261C2.914,-0.229 3.595,-0.875 4.038,-1.674C4.481,-2.474 4.703,-3.358 4.703,-4.324C4.703,-5.368 4.473,-6.295 4.014,-7.101C3.555,-7.909 2.866,-8.543 1.948,-9.001M-66.508,2.209C-67.364,3.049 -68.559,3.468 -70.095,3.468L-72.019,3.468L-72.019,-6.223L-70.095,-6.223C-68.559,-6.223 -67.364,-5.795 -66.508,-4.941C-65.654,-4.085 -65.226,-2.89 -65.226,-1.354C-65.226,0.183 -65.654,1.37 -66.508,2.209M-65.226,-8.646C-66.54,-9.343 -68.076,-9.691 -69.834,-9.691L-76.08,-9.691L-76.08,6.983L-69.834,6.983C-68.092,6.983 -66.56,6.635 -65.237,5.939C-63.915,5.241 -62.894,4.259 -62.173,2.993C-61.453,1.726 -61.093,0.277 -61.093,-1.354C-61.093,-3 -61.453,-4.453 -62.173,-5.712C-62.894,-6.972 -63.912,-7.948 -65.226,-8.646M-58.912,6.983L-48.699,6.983L-48.699,3.729L-54.851,3.729L-54.851,0.071L-49.412,0.071L-49.412,-3.064L-54.851,-3.064L-54.851,-6.437L-48.699,-6.437L-48.699,-9.691L-58.912,-9.691L-58.912,6.983ZM-24.845,0.902L-22.802,-5.201L-20.736,0.902L-24.845,0.902ZM-25.13,-9.691L-31.163,6.983L-26.912,6.983L-25.914,4.038L-19.691,4.038L-18.694,6.983L-14.394,6.983L-20.427,-9.691L-25.13,-9.691ZM32.47,2.114C31.669,3.001 30.605,3.445 29.275,3.445C27.928,3.445 26.855,3.004 26.056,2.125C25.256,1.248 24.857,0.071 24.857,-1.401C24.857,-2.89 25.256,-4.069 26.056,-4.941C26.855,-5.812 27.928,-6.247 29.275,-6.247C30.605,-6.247 31.669,-5.807 32.47,-4.928C33.269,-4.049 33.669,-2.873 33.669,-1.401C33.669,0.055 33.269,1.227 32.47,2.114M33.586,-8.836C32.279,-9.564 30.843,-9.928 29.275,-9.928C27.707,-9.928 26.27,-9.564 24.963,-8.836C23.657,-8.106 22.62,-7.094 21.852,-5.795C21.083,-4.496 20.7,-3.032 20.7,-1.401C20.7,0.229 21.083,1.698 21.852,3.004C22.62,4.311 23.657,5.328 24.963,6.057C26.27,6.786 27.707,7.149 29.275,7.149C30.843,7.149 32.275,6.786 33.573,6.057C34.872,5.328 35.902,4.311 36.661,3.004C37.422,1.698 37.802,0.229 37.802,-1.401C37.802,-3.032 37.425,-4.496 36.673,-5.795C35.921,-7.094 34.891,-8.106 33.586,-8.836M14.662,-2.731C14.29,-2.367 13.732,-2.185 12.988,-2.185L10.47,-2.185L10.47,-6.318L12.988,-6.318C13.732,-6.318 14.29,-6.135 14.662,-5.772C15.034,-5.407 15.221,-4.909 15.221,-4.276C15.221,-3.61 15.034,-3.096 14.662,-2.731M18.415,-1.473C19.041,-2.344 19.354,-3.333 19.354,-4.441C19.354,-5.423 19.124,-6.314 18.665,-7.115C18.205,-7.914 17.512,-8.543 16.586,-9.001C15.66,-9.46 14.539,-9.691 13.225,-9.691L6.408,-9.691L6.408,6.983L10.47,6.983L10.47,0.688L11.444,0.688L14.912,6.983L19.496,6.983L15.648,0.381C16.868,0.016 17.789,-0.602 18.415,-1.473M98.722,6.983L102.785,6.983L102.785,-9.692L98.722,-9.692L98.722,6.983ZM110.556,0.902L112.601,-5.201L114.666,0.902L110.556,0.902ZM114.972,-9.691L110.271,-9.691L104.238,6.983L108.491,6.983L109.49,4.038L115.712,4.038L116.711,6.983L121.011,6.983L114.972,-9.691ZM56.083,6.983L60.145,6.983L60.145,-9.692L56.083,-9.692L56.083,6.983ZM88.579,-6.176C89.354,-6.176 90.047,-5.993 90.658,-5.63C91.269,-5.265 91.738,-4.735 92.071,-4.037L96.534,-4.037C96.059,-5.844 95.121,-7.268 93.708,-8.313C92.302,-9.359 90.604,-9.88 88.627,-9.88C87.01,-9.88 85.57,-9.52 84.292,-8.799C83.015,-8.079 82.023,-7.074 81.31,-5.784C80.597,-4.494 80.244,-3.025 80.244,-1.378C80.244,0.27 80.597,1.735 81.31,3.017C82.023,4.299 83.015,5.301 84.292,6.021C85.57,6.742 87.01,7.102 88.627,7.102C90.604,7.102 92.302,6.584 93.708,5.546C95.121,4.509 96.059,3.089 96.534,1.283L92.071,1.283C91.738,1.98 91.269,2.51 90.658,2.873C90.047,3.238 89.354,3.421 88.579,3.421C87.329,3.421 86.317,2.985 85.536,2.114C84.761,1.243 84.374,0.08 84.374,-1.378C84.374,-2.835 84.761,-3.998 85.536,-4.87C86.317,-5.74 87.329,-6.176 88.579,-6.176M46.269,2.898L42.137,-9.691L37.813,-9.691L43.728,6.983L48.811,6.983L54.725,-9.691L50.426,-9.691L46.269,2.898ZM74,0.642L67.207,-9.691L63.145,-9.691L63.145,6.983L67.207,6.983L67.207,-3.301L74,6.983L78.063,6.983L78.063,-9.691L74,-9.691L74,0.642ZM-37.441,-9.691L-41.503,-9.691L-41.503,6.983L-32.12,6.983L-32.12,3.848L-37.441,3.848L-37.441,-9.691ZM-152.351,6.983L-148.289,6.983L-148.289,-9.692L-152.351,-9.692L-152.351,6.983ZM-145.289,6.983L-135.075,6.983L-135.075,3.729L-141.227,3.729L-141.227,0.071L-135.788,0.071L-135.788,-3.064L-141.227,-3.064L-141.227,-6.437L-135.075,-6.437L-135.075,-9.691L-145.289,-9.691L-145.289,6.983ZM-159.366,3.243C-159.739,3.551 -160.265,3.706 -160.946,3.706L-163.939,3.706L-163.939,0.025L-160.994,0.025C-160.313,0.025 -159.778,0.19 -159.391,0.523C-159.003,0.856 -158.808,1.315 -158.808,1.9C-158.808,2.487 -158.994,2.933 -159.366,3.243M-163.939,-6.437L-161.279,-6.437C-160.613,-6.437 -160.103,-6.286 -159.747,-5.986C-159.391,-5.685 -159.212,-5.249 -159.212,-4.679C-159.212,-4.108 -159.391,-3.677 -159.747,-3.385C-160.103,-3.091 -160.613,-2.945 -161.279,-2.945L-163.939,-2.945L-163.939,-6.437ZM-157.905,-1.568C-157.051,-1.82 -156.365,-2.272 -155.851,-2.922C-155.337,-3.571 -155.079,-4.386 -155.079,-5.368C-155.079,-6.697 -155.559,-7.75 -156.516,-8.526C-157.475,-9.302 -158.8,-9.691 -160.495,-9.691L-168.001,-9.691L-168.001,6.983L-160.234,6.983C-158.492,6.983 -157.134,6.575 -156.16,5.76C-155.186,4.945 -154.7,3.839 -154.7,2.447C-154.7,1.481 -154.992,0.622 -155.578,-0.131C-156.164,-0.882 -156.94,-1.361 -157.905,-1.568M-175.501,2.114C-176.302,3.001 -177.366,3.445 -178.696,3.445C-180.043,3.445 -181.115,3.004 -181.915,2.125C-182.715,1.248 -183.114,0.071 -183.114,-1.401C-183.114,-2.89 -182.715,-4.069 -181.915,-4.941C-181.115,-5.812 -180.043,-6.247 -178.696,-6.247C-177.366,-6.247 -176.302,-5.807 -175.501,-4.928C-174.702,-4.049 -174.302,-2.873 -174.302,-1.401C-174.302,0.055 -174.702,1.227 -175.501,2.114M-174.385,-8.836C-175.691,-9.564 -177.128,-9.928 -178.696,-9.928C-180.264,-9.928 -181.701,-9.564 -183.007,-8.836C-184.314,-8.106 -185.351,-7.094 -186.119,-5.795C-186.888,-4.496 -187.271,-3.032 -187.271,-1.401C-187.271,0.229 -186.888,1.698 -186.119,3.004C-185.351,4.311 -184.314,5.328 -183.007,6.057C-181.701,6.786 -180.264,7.149 -178.696,7.149C-177.128,7.149 -175.696,6.786 -174.397,6.057C-173.099,5.328 -172.069,4.311 -171.31,3.004C-170.549,1.698 -170.169,0.229 -170.169,-1.401C-170.169,-3.032 -170.545,-4.496 -171.297,-5.795C-172.049,-7.094 -173.079,-8.106 -174.385,-8.836M-197.551,0.571L-192.397,0.571C-192.714,1.521 -193.217,2.249 -193.905,2.756C-194.594,3.263 -195.437,3.515 -196.434,3.515C-197.891,3.515 -199.035,3.084 -199.867,2.221C-200.698,1.358 -201.113,0.158 -201.113,-1.378C-201.113,-2.818 -200.719,-3.971 -199.926,-4.833C-199.135,-5.696 -198.081,-6.128 -196.767,-6.128C-196.007,-6.128 -195.346,-5.981 -194.784,-5.689C-194.222,-5.396 -193.79,-4.971 -193.49,-4.418L-189,-4.418C-189.444,-6.128 -190.351,-7.466 -191.719,-8.432C-193.09,-9.398 -194.772,-9.88 -196.767,-9.88C-198.414,-9.88 -199.879,-9.52 -201.162,-8.799C-202.444,-8.079 -203.446,-7.074 -204.166,-5.784C-204.887,-4.494 -205.247,-3.025 -205.247,-1.378C-205.247,0.27 -204.887,1.735 -204.166,3.017C-203.446,4.299 -202.44,5.301 -201.149,6.021C-199.859,6.742 -198.391,7.102 -196.743,7.102C-195.35,7.102 -194.099,6.834 -192.99,6.294C-191.882,5.756 -190.967,5.051 -190.247,4.181C-189.526,3.309 -189.016,2.368 -188.715,1.354L-188.715,-2.424L-197.551,-2.424L-197.551,0.571ZM-106.241,0.642L-113.034,-9.691L-117.096,-9.691L-117.096,6.983L-113.034,6.983L-113.034,-3.301L-106.241,6.983L-102.179,6.983L-102.179,-9.691L-106.241,-9.691L-106.241,0.642ZM-88.229,2.114C-89.029,3.001 -90.093,3.445 -91.424,3.445C-92.77,3.445 -93.843,3.004 -94.642,2.125C-95.442,1.248 -95.841,0.071 -95.841,-1.401C-95.841,-2.89 -95.442,-4.069 -94.642,-4.941C-93.843,-5.812 -92.77,-6.247 -91.424,-6.247C-90.093,-6.247 -89.029,-5.807 -88.229,-4.928C-87.43,-4.049 -87.029,-2.873 -87.029,-1.401C-87.029,0.055 -87.43,1.227 -88.229,2.114M-87.112,-8.836C-88.419,-9.564 -89.856,-9.928 -91.424,-9.928C-92.991,-9.928 -94.428,-9.564 -95.735,-8.836C-97.041,-8.106 -98.078,-7.094 -98.846,-5.795C-99.615,-4.496 -99.998,-3.032 -99.998,-1.401C-99.998,0.229 -99.615,1.698 -98.846,3.004C-98.078,4.311 -97.041,5.328 -95.735,6.057C-94.428,6.786 -92.991,7.149 -91.424,7.149C-89.856,7.149 -88.423,6.786 -87.125,6.057C-85.826,5.328 -84.797,4.311 -84.037,3.004C-83.276,1.698 -82.896,0.229 -82.896,-1.401C-82.896,-3.032 -83.273,-4.496 -84.025,-5.795C-84.777,-7.094 -85.806,-8.106 -87.112,-8.836M-124.131,-2.731C-124.503,-2.367 -125.061,-2.185 -125.805,-2.185L-128.323,-2.185L-128.323,-6.318L-125.805,-6.318C-125.061,-6.318 -124.503,-6.135 -124.131,-5.772C-123.759,-5.407 -123.572,-4.909 -123.572,-4.276C-123.572,-3.61 -123.759,-3.096 -124.131,-2.731M-120.377,-1.473C-119.752,-2.344 -119.439,-3.333 -119.439,-4.441C-119.439,-5.423 -119.67,-6.314 -120.129,-7.115C-120.587,-7.914 -121.28,-8.543 -122.207,-9.001C-123.133,-9.46 -124.254,-9.691 -125.568,-9.691L-132.385,-9.691L-132.385,6.983L-128.323,6.983L-128.323,0.688L-127.349,0.688L-123.881,6.983L-119.297,6.983L-123.144,0.381C-121.926,0.016 -121.003,-0.602 -120.377,-1.473" style="fill:white;fill-rule:nonzero;"/>
        </g>
        <g transform="matrix(5.55556,0,0,5.55556,79619.6,-3386.28)">
            <path d="M0,31.846C-2.003,33.936 -4.45,34.979 -7.327,34.979C-10.205,34.979 -12.652,33.921 -14.654,31.804C-16.657,29.687 -17.662,26.821 -17.662,23.207C-17.662,19.593 -16.657,16.757 -14.654,14.695C-12.652,12.634 -10.205,11.604 -7.327,11.604C-4.45,11.604 -2.003,12.649 0,14.738C2.003,16.827 3.008,19.679 3.008,23.291C3.008,26.906 2.003,29.758 0,31.846M-50.158,31.804C-52.191,33.921 -54.647,34.979 -57.528,34.979C-60.406,34.979 -62.851,33.936 -64.855,31.846C-66.859,29.758 -67.86,26.906 -67.86,23.291C-67.86,19.679 -66.859,16.827 -64.855,14.738C-62.851,12.649 -60.406,11.604 -57.528,11.604C-54.592,11.604 -52.122,12.634 -50.115,14.695C-48.113,16.757 -47.11,19.593 -47.11,23.207C-47.11,26.821 -48.126,29.687 -50.158,31.804M-99.878,32.015C-101.827,34.048 -104.184,35.065 -106.951,35.065C-109.717,35.065 -112.019,34.048 -113.853,32.015C-115.687,29.983 -116.604,27.075 -116.604,23.291C-116.604,19.453 -115.674,16.53 -113.81,14.526C-111.948,12.522 -109.605,11.519 -106.78,11.519C-104.014,11.519 -101.685,12.535 -99.792,14.567C-97.902,16.601 -96.957,19.51 -96.957,23.291C-96.957,27.075 -97.929,29.983 -99.878,32.015M-148.718,31.846C-150.722,33.936 -153.164,34.979 -156.045,34.979C-158.923,34.979 -161.367,33.921 -163.371,31.804C-165.375,29.687 -166.376,26.821 -166.376,23.207C-166.376,19.593 -165.375,16.757 -163.371,14.695C-161.367,12.634 -158.923,11.604 -156.045,11.604C-153.164,11.604 -150.722,12.649 -148.718,14.738C-146.713,16.827 -145.71,19.679 -145.71,23.291C-145.71,26.906 -146.713,29.758 -148.718,31.846M-226.547,32.015C-228.495,34.048 -230.853,35.065 -233.619,35.065C-236.386,35.065 -238.687,34.048 -240.522,32.015C-242.356,29.983 -243.272,27.075 -243.272,23.291C-243.272,19.453 -242.343,16.53 -240.478,14.526C-238.616,12.522 -236.274,11.519 -233.449,11.519C-230.683,11.519 -228.353,12.535 -226.461,14.567C-224.571,16.601 -223.625,19.51 -223.625,23.291C-223.625,27.075 -224.598,29.983 -226.547,32.015M3.008,-0.338L3.008,6.352C1.647,4.151 -0.28,2.372 -2.796,1.017C-5.311,-0.338 -8.229,-1.017 -11.565,-1.017C-15.461,-1.017 -18.988,-0.027 -22.146,1.948C-25.311,3.926 -27.812,6.748 -29.644,10.418C-31.421,13.968 -32.323,18.077 -32.385,22.735C-32.44,18.077 -33.349,13.968 -35.126,10.418C-36.964,6.748 -39.459,3.926 -42.621,1.948C-45.784,-0.027 -49.312,-1.017 -53.207,-1.017C-56.484,-1.017 -59.39,-0.338 -61.931,1.017C-64.473,2.372 -66.419,4.151 -67.776,6.352L-67.776,-15.753L-82.259,-15.753L-82.259,21.81C-82.458,17.563 -83.513,13.777 -85.436,10.459C-87.582,6.762 -90.519,3.926 -94.246,1.948C-97.973,-0.027 -102.151,-1.017 -106.78,-1.017C-111.412,-1.017 -115.588,-0.027 -119.315,1.948C-123.042,3.926 -125.978,6.762 -128.125,10.459C-129.89,13.501 -130.915,16.941 -131.228,20.764L-131.228,-15.753L-145.71,-15.753L-145.71,6.183C-147.181,3.98 -149.198,2.231 -151.767,0.932C-154.337,-0.366 -157.175,-1.017 -160.279,-1.017C-164.177,-1.017 -167.705,-0.027 -170.865,1.948C-174.028,3.926 -176.528,6.748 -178.362,10.418C-178.917,11.528 -179.378,12.701 -179.765,13.92L-179.765,-0.847C-182.872,-0.847 -185.694,-0.098 -188.234,1.398C-190.778,2.894 -192.894,4.942 -194.588,7.538L-194.588,-0.338L-209.071,-0.338L-209.071,19.949C-209.458,16.45 -210.467,13.284 -212.105,10.459C-214.251,6.762 -217.188,3.926 -220.915,1.948C-223.967,0.331 -227.327,-0.614 -230.983,-0.908L-222.439,-4.488L-222.439,-15.753L-242.851,-5.929L-242.851,0.566C-243.927,0.956 -244.974,1.412 -245.983,1.948C-249.71,3.926 -252.647,6.762 -254.794,10.459C-256.94,14.159 -258.01,18.437 -258.01,23.291C-258.01,24.427 -257.947,25.526 -257.834,26.595L-273.453,26.595C-274.637,29.08 -276.318,30.97 -278.491,32.269C-280.665,33.57 -283.137,34.217 -285.903,34.217C-290.365,34.217 -293.977,32.666 -296.743,29.56C-299.509,26.454 -300.894,22.304 -300.894,17.109C-300.894,11.914 -299.509,7.764 -296.743,4.658C-293.977,1.555 -290.365,0.001 -285.903,0.001C-283.137,0.001 -280.665,0.65 -278.491,1.948C-276.318,3.248 -274.637,5.139 -273.453,7.624L-257.53,7.624C-259.222,1.186 -262.583,-3.896 -267.608,-7.623C-272.635,-11.349 -278.676,-13.212 -285.733,-13.212C-291.492,-13.212 -296.644,-11.928 -301.189,-9.359C-305.736,-6.788 -309.278,-3.204 -311.818,1.398C-314.361,6 -315.631,11.237 -315.631,17.109C-315.631,22.983 -314.361,28.204 -311.818,32.778C-309.278,37.351 -305.736,40.923 -301.189,43.491C-296.644,46.062 -291.492,47.345 -285.733,47.345C-278.676,47.345 -272.635,45.497 -267.608,41.798C-262.773,38.24 -259.496,33.401 -257.746,27.307C-257.317,30.578 -256.354,33.535 -254.834,36.166C-252.718,39.837 -249.809,42.659 -246.11,44.636C-242.415,46.612 -238.248,47.599 -233.619,47.599C-228.988,47.599 -224.796,46.612 -221.042,44.636C-217.287,42.659 -214.322,39.821 -212.148,36.123C-210.485,33.291 -209.462,30.117 -209.071,26.606L-209.071,46.922L-194.588,46.922L-194.588,24.986C-194.588,21.09 -193.686,18.366 -191.877,16.812C-190.072,15.26 -187.361,14.483 -183.746,14.483L-179.941,14.483C-180.718,17.142 -181.113,20.047 -181.113,23.207C-181.113,28.063 -180.196,32.342 -178.362,36.039C-176.528,39.738 -174.028,42.59 -170.865,44.592C-167.705,46.598 -164.177,47.599 -160.279,47.599C-156.949,47.599 -154.025,46.922 -151.512,45.567C-149,44.211 -147.067,42.405 -145.71,40.147L-145.71,46.922L-131.228,46.922L-131.228,25.86C-130.917,29.713 -129.905,33.153 -128.166,36.166C-126.049,39.837 -123.141,42.659 -119.442,44.636C-115.745,46.612 -111.579,47.599 -106.951,47.599C-102.32,47.599 -98.128,46.612 -94.373,44.636C-90.619,42.659 -87.654,39.821 -85.479,36.123C-83.528,32.802 -82.458,29.009 -82.259,24.753L-82.259,46.922L-67.776,46.922L-67.776,40.316C-66.366,42.518 -64.418,44.284 -61.931,45.609C-59.449,46.935 -56.54,47.599 -53.207,47.599C-49.312,47.599 -45.784,46.598 -42.621,44.592C-39.459,42.59 -36.964,39.738 -35.126,36.039C-33.349,32.463 -32.44,28.339 -32.385,23.679C-32.323,28.339 -31.421,32.463 -29.644,36.039C-27.812,39.738 -25.311,42.59 -22.146,44.592C-18.988,46.598 -15.488,47.599 -11.647,47.599C-8.318,47.599 -5.393,46.922 -2.884,45.567C-0.369,44.211 1.593,42.433 3.008,40.231L3.008,46.922L17.491,46.922L17.491,-0.338L3.008,-0.338Z" style="fill:white;fill-rule:nonzero;"/>
        </g>
        <g transform="matrix(5.55556,0,0,5.55556,77740.3,-3057.05)">
            <path d="M0,-57.332C-0.545,-56.812 -1.306,-56.787 -1.712,-56.817L-2.481,-56.875L-2.877,-56.213C-4.122,-54.13 -7.019,-48.427 -7.019,-40.477L-7.019,-40.173C-6.974,-34.975 -6.338,-31.746 -5.773,-28.874C-5.206,-25.954 -4.619,-22.933 -4.619,-18.173C-4.619,6.777 -22.901,11.826 -33.823,14.843C-36.148,15.485 -37.983,15.991 -39.29,16.595C-42.369,17.963 -44.558,20.237 -45.751,21.724C-46.942,20.238 -49.127,17.965 -52.196,16.602C-53.519,15.991 -55.354,15.485 -57.678,14.843C-68.601,11.826 -86.882,6.777 -86.882,-18.173C-86.882,-22.933 -86.296,-25.954 -85.724,-28.897C-85.163,-31.745 -84.527,-34.973 -84.483,-40.184L-84.483,-40.477C-84.483,-48.43 -87.379,-54.131 -88.624,-56.213L-89.02,-56.875L-89.79,-56.817C-90.196,-56.787 -90.957,-56.812 -91.497,-57.328C-91.962,-57.775 -92.224,-58.346 -92.217,-58.893C-92.213,-59.175 -92.135,-59.576 -91.787,-59.906C-91.138,-60.438 -80.333,-69.288 -80.16,-69.428L-80.079,-69.499C-79.239,-70.297 -77.693,-70.296 -76.853,-69.509C-76.506,-69.171 -76.304,-68.663 -76.293,-68.11C-76.298,-68.092 -76.304,-68.074 -76.309,-68.055C-76.332,-67.975 -76.354,-67.894 -76.373,-67.811L-76.521,-67.128L-76.017,-66.644C-75.626,-66.27 -75.15,-65.801 -75.126,-65.778C-74.315,-65.017 -72.871,-64.625 -71.266,-64.729C-69.973,-64.813 -67.963,-65.258 -65.725,-66.904C-63.277,-68.704 -62.726,-72.392 -62.726,-73.542C-62.726,-73.749 -62.726,-73.964 -62.816,-74.242L-63.011,-74.848L-63.617,-75.046C-64.629,-75.375 -65.283,-76.293 -65.283,-77.384C-65.283,-78.777 -64.124,-79.909 -62.7,-79.909L-28.802,-79.909C-27.377,-79.909 -26.219,-78.777 -26.219,-77.384C-26.219,-76.293 -26.872,-75.375 -27.884,-75.046L-28.487,-74.849L-28.684,-74.247C-28.776,-73.966 -28.776,-73.741 -28.776,-73.542C-28.776,-72.392 -28.224,-68.704 -25.776,-66.904C-23.539,-65.258 -21.528,-64.813 -20.236,-64.729C-18.631,-64.625 -17.187,-65.017 -16.353,-65.799C-16.351,-65.801 -15.874,-66.271 -15.484,-66.645L-14.982,-67.127L-15.128,-67.808C-15.146,-67.893 -15.169,-67.975 -15.193,-68.057C-15.198,-68.075 -15.204,-68.093 -15.209,-68.111C-15.198,-68.664 -14.996,-69.171 -14.667,-69.492C-13.809,-70.295 -12.263,-70.299 -11.422,-69.499L-11.346,-69.432C-11.169,-69.288 -0.364,-60.438 0.286,-59.906C0.634,-59.576 0.712,-59.175 0.716,-58.893C0.723,-58.346 0.461,-57.775 0,-57.332M1.947,-61.768L1.896,-61.811C-0.724,-63.957 -9.057,-70.783 -9.74,-71.341C-11.54,-73.014 -14.566,-73.005 -16.39,-71.296C-17.225,-70.482 -17.704,-69.304 -17.704,-68.065C-17.704,-68.032 -17.703,-68.001 -17.701,-67.97C-17.917,-67.76 -18.082,-67.598 -18.082,-67.597C-18.497,-67.21 -21.096,-66.559 -24.299,-68.913C-25.585,-69.859 -26.117,-71.931 -26.247,-73.051C-24.708,-73.908 -23.724,-75.55 -23.724,-77.384C-23.724,-80.152 -26.002,-82.404 -28.802,-82.404L-62.7,-82.404C-65.499,-82.404 -67.777,-80.152 -67.777,-77.384C-67.777,-75.551 -66.793,-73.908 -65.254,-73.051C-65.385,-71.931 -65.917,-69.859 -67.202,-68.914C-70.406,-66.558 -73.007,-67.21 -73.397,-67.576C-73.397,-67.576 -73.573,-67.749 -73.8,-67.971C-73.799,-68.001 -73.798,-68.033 -73.798,-68.065C-73.798,-69.304 -74.277,-70.482 -75.13,-71.313C-76.936,-73.006 -79.961,-73.014 -81.761,-71.341C-82.444,-70.783 -90.777,-63.957 -93.397,-61.811L-93.448,-61.768C-94.248,-61.038 -94.696,-60.029 -94.711,-58.927C-94.728,-57.692 -94.187,-56.454 -93.223,-55.527C-92.483,-54.821 -91.507,-54.407 -90.419,-54.327C-89.293,-52.268 -86.978,-47.212 -86.978,-40.477L-86.978,-40.194C-87.02,-35.227 -87.605,-32.254 -88.177,-29.35C-88.767,-26.313 -89.377,-23.173 -89.377,-18.173C-89.377,8.676 -69.188,14.252 -58.342,17.247C-56.216,17.835 -54.379,18.342 -53.224,18.874C-49.194,20.665 -46.861,24.434 -46.84,24.47L-46.436,25.072L-45.729,25.072L-45.028,25.07L-44.663,24.472C-44.64,24.434 -42.307,20.665 -38.261,18.867C-37.123,18.342 -35.286,17.835 -33.16,17.247C-22.313,14.252 -2.125,8.676 -2.125,-18.173C-2.125,-23.173 -2.735,-26.313 -3.33,-29.379C-3.896,-32.255 -4.482,-35.229 -4.524,-40.184L-4.524,-40.477C-4.524,-47.135 -2.338,-52.054 -1.084,-54.327C0.005,-54.407 0.982,-54.821 1.726,-55.531C2.685,-56.454 3.227,-57.692 3.21,-58.927C3.195,-60.029 2.747,-61.038 1.947,-61.768" style="fill:white;fill-rule:nonzero;"/>
        </g>
        <g transform="matrix(5.55556,0,0,5.55556,77470.3,-3275.84)">
            <path d="M0,5.112L-1.885,5.112L-1.885,0.942C-1.885,0.422 -1.462,0 -0.943,0C-0.423,0 0,0.422 0,0.942L0,5.112ZM-0.943,-1.996C-2.563,-1.996 -3.881,-0.678 -3.881,0.942L-3.881,7.108L1.996,7.108L1.996,0.942C1.996,-0.678 0.678,-1.996 -0.943,-1.996" style="fill:white;fill-rule:nonzero;"/>
        </g>
        <g transform="matrix(5.55556,0,0,5.55556,77512.5,-3275.84)">
            <path d="M0,5.112L-1.885,5.112L-1.885,0.942C-1.885,0.422 -1.462,0 -0.943,0C-0.423,0 0,0.422 0,0.942L0,5.112ZM-0.943,-1.996C-2.563,-1.996 -3.881,-0.678 -3.881,0.942L-3.881,7.108L1.996,7.108L1.996,0.942C1.996,-0.678 0.678,-1.996 -0.943,-1.996" style="fill:white;fill-rule:nonzero;"/>
        </g>
        <g transform="matrix(5.55556,0,0,5.55556,77514.3,-3445.55)">
            <path d="M0,61.773L0,52.582C0,49.792 -2.27,47.522 -5.06,47.522C-7.85,47.522 -10.12,49.792 -10.12,52.582L-10.12,61.773L-17.308,61.773L-17.308,44.684L7.188,44.684L7.188,61.773L0,61.773ZM-7.762,61.773L-7.762,52.582C-7.762,51.092 -6.55,49.881 -5.06,49.881C-3.57,49.881 -2.358,51.092 -2.358,52.582L-2.358,61.773L-7.762,61.773ZM-12.818,24.366C-12.818,24.109 -12.806,23.853 -12.794,23.597L2.674,23.597C2.686,23.853 2.698,24.109 2.698,24.366C2.698,30.31 3.564,36.688 5.275,42.325L-15.395,42.325C-13.685,36.687 -12.818,30.309 -12.818,24.366M-9.21,21.225L-12.9,21.225L-12.9,15.998L-9.21,15.998L-9.21,21.225ZM-3.178,21.225L-6.942,21.225L-6.942,13.944L-3.178,13.944L-3.178,21.225ZM2.779,21.225L-0.911,21.225L-0.911,15.998L2.779,15.998L2.779,21.225ZM9.546,50.903L12.497,46.18C13.462,46.06 14.761,45.851 16.408,46.802C19.281,48.46 18.59,50.342 21.463,52.001C22.666,52.695 23.524,52.764 24.206,52.805L25.665,50.278C24.855,50.322 24.003,50.297 22.707,49.548C19.834,47.89 20.566,45.937 17.693,44.278C16.222,43.429 15.03,43.507 14.107,43.603L15.628,41.169C16.426,41.095 17.559,41.116 18.967,41.929C21.84,43.588 21.121,45.519 23.994,47.177C25.335,47.952 26.166,48.013 27.001,47.963L28.562,45.261C27.847,45.333 26.608,45.508 24.977,44.567C22.104,42.908 22.799,41.02 19.926,39.361C18.764,38.691 17.958,38.599 17.221,38.619L17.727,37.81L15.881,36.657L9.546,46.795L9.546,42.325L7.756,42.325C7.541,41.647 7.337,40.448 7.148,39.763L12.426,31.283C13.387,31.163 14.672,30.973 16.295,31.91C19.167,33.568 18.477,35.45 21.35,37.109C22.552,37.803 23.41,37.872 24.092,37.913L25.551,35.387C24.742,35.431 23.889,35.405 22.593,34.657C19.72,32.998 20.452,31.045 17.579,29.386C16.127,28.548 14.947,28.614 14.029,28.708L15.544,26.274C16.339,26.203 17.462,26.234 18.853,27.037C21.726,28.696 21.007,30.627 23.88,32.286C25.221,33.06 26.052,33.122 26.888,33.072L28.448,30.369C27.733,30.441 26.495,30.617 24.863,29.675C21.991,28.016 22.685,26.128 19.812,24.47C18.661,23.805 17.86,23.71 17.128,23.728L17.728,22.765L15.88,21.615L6.418,36.817C5.789,33.963 5.378,31.063 5.189,28.132L12.408,16.578C13.381,16.462 14.709,16.208 16.408,17.189C19.281,18.847 18.59,20.729 21.463,22.388C22.666,23.082 23.524,23.151 24.206,23.192L25.665,20.666C24.855,20.71 24.003,20.684 22.707,19.936C19.834,18.277 20.566,16.324 17.693,14.665C16.175,13.789 14.953,13.9 14.019,14L15.54,11.565C16.341,11.481 17.506,11.473 18.967,12.316C21.84,13.975 21.121,15.906 23.994,17.565C25.335,18.339 26.166,18.4 27.001,18.35L28.562,15.648C27.847,15.72 26.608,15.896 24.977,14.954C22.104,13.295 22.799,11.407 19.926,9.748C18.719,9.052 17.897,8.982 17.136,9.011L17.727,8.065L15.881,6.911L5.053,24.241C5.05,24.026 5.043,23.811 5.033,23.597L5.047,23.597L5.047,21.238L5.048,21.225L5.047,21.225L5.047,13.73L-0.91,13.73L-0.91,11.676L-3.971,11.676L-3.971,7.292C-3.19,6.705 -2.168,5.844 -0.232,5.844C3.086,5.844 3.428,7.819 6.746,7.819C8.135,7.819 8.912,7.449 9.523,7.144L9.523,4.226C8.844,4.669 8.093,5.073 6.596,5.073C3.279,5.073 2.936,3.016 -0.381,3.016C-2.194,3.016 -3.202,3.771 -3.971,4.331L-3.971,1.537C-3.328,1.051 -2.297,0.344 -0.452,0.344C2.865,0.344 3.208,2.376 6.525,2.376C8.075,2.376 8.825,2.014 9.523,1.553L9.523,-1.568C8.94,-1.148 7.955,-0.376 6.072,-0.376C2.755,-0.376 2.412,-2.359 -0.906,-2.359C-2.504,-2.359 -3.253,-1.899 -3.971,-1.421L-3.971,-2.268L-6.149,-2.268L-6.149,11.676L-9.21,11.676L-9.21,13.73L-15.167,13.73L-15.167,23.597L-15.153,23.597C-15.163,23.812 -15.17,24.027 -15.173,24.242L-26.001,6.911L-27.847,8.065L-27.256,9.011C-28.017,8.982 -28.839,9.052 -30.046,9.748C-32.919,11.407 -32.224,13.295 -35.097,14.954C-36.728,15.896 -37.967,15.72 -38.682,15.648L-37.121,18.35C-36.286,18.4 -35.455,18.339 -34.114,17.565C-31.241,15.906 -31.96,13.975 -29.087,12.316C-27.626,11.473 -26.461,11.481 -25.66,11.565L-24.139,14C-25.073,13.9 -26.295,13.789 -27.813,14.665C-30.686,16.324 -29.954,18.277 -32.827,19.936C-34.123,20.684 -34.975,20.71 -35.785,20.666L-34.326,23.192C-33.644,23.151 -32.786,23.082 -31.583,22.388C-28.71,20.729 -29.401,18.847 -26.528,17.189C-24.829,16.208 -23.502,16.462 -22.528,16.578L-15.309,28.132C-15.497,31.04 -15.902,33.918 -16.523,36.75L-26.001,21.613L-27.846,22.768L-27.245,23.728C-27.978,23.71 -28.78,23.804 -29.932,24.47C-32.805,26.128 -32.111,28.016 -34.984,29.675C-36.615,30.617 -37.853,30.441 -38.568,30.369L-37.008,33.072C-36.173,33.122 -35.342,33.06 -34,32.286C-31.127,30.627 -31.846,28.696 -28.973,27.037C-27.574,26.229 -26.446,26.203 -25.65,26.276L-24.125,28.71C-25.047,28.615 -26.234,28.541 -27.699,29.386C-30.572,31.045 -29.84,32.998 -32.713,34.657C-34.009,35.405 -34.862,35.431 -35.671,35.387L-34.212,37.913C-33.53,37.872 -32.672,37.803 -31.47,37.109C-28.597,35.45 -29.287,33.568 -26.415,31.91C-24.772,30.962 -23.476,31.168 -22.512,31.287L-17.249,39.693C-17.444,40.401 -17.653,41.624 -17.876,42.325L-19.666,42.325L-19.666,46.795L-26.001,36.657L-27.847,37.81L-27.341,38.619C-28.079,38.599 -28.884,38.69 -30.046,39.361C-32.919,41.02 -32.224,42.908 -35.097,44.567C-36.728,45.508 -37.967,45.333 -38.682,45.261L-37.121,47.963C-36.286,48.013 -35.455,47.952 -34.114,47.177C-31.241,45.519 -31.96,43.588 -29.087,41.929C-27.679,41.116 -26.546,41.094 -25.748,41.169L-24.227,43.603C-25.15,43.507 -26.342,43.429 -27.813,44.278C-30.686,45.937 -29.954,47.89 -32.827,49.548C-34.123,50.297 -34.975,50.322 -35.785,50.278L-34.326,52.805C-33.644,52.764 -32.786,52.695 -31.583,52.001C-28.71,50.342 -29.401,48.46 -26.528,46.802C-24.881,45.851 -23.583,46.06 -22.618,46.18L-19.666,50.903L-19.666,61.773L-42.678,61.773C-42.451,62.594 -42.199,63.38 -41.924,64.132L31.804,64.132C32.079,63.38 32.331,62.594 32.558,61.773L9.546,61.773L9.546,50.903Z" style="fill:white;fill-rule:nonzero;"/>
        </g>
        <g transform="matrix(5.55556,0,0,5.55556,77572.7,-2990.25)">
            <path d="M0,-4.77C-2.343,-4.77 -3.563,-4.041 -4.64,-3.397C-5.611,-2.817 -6.378,-2.359 -8.07,-2.359C-9.762,-2.359 -10.529,-2.817 -11.5,-3.397C-12.576,-4.041 -13.797,-4.77 -16.139,-4.77C-18.482,-4.77 -19.702,-4.041 -20.779,-3.397C-21.75,-2.817 -22.516,-2.359 -24.208,-2.359C-25.9,-2.359 -26.668,-2.817 -27.638,-3.397C-28.715,-4.041 -29.935,-4.77 -32.278,-4.77C-34.621,-4.77 -35.841,-4.041 -36.918,-3.397C-37.237,-3.207 -37.536,-3.031 -37.851,-2.879C-36.913,-2.47 -35.969,-2.102 -35.027,-1.765C-34.315,-2.146 -33.563,-2.411 -32.278,-2.411C-30.587,-2.411 -29.819,-1.953 -28.849,-1.373C-27.772,-0.729 -26.552,0 -24.208,0C-21.866,0 -20.646,-0.729 -19.569,-1.373C-18.598,-1.953 -17.831,-2.411 -16.139,-2.411C-14.448,-2.411 -13.681,-1.953 -12.71,-1.373C-11.633,-0.729 -10.413,0 -8.07,0C-5.727,0 -4.507,-0.729 -3.43,-1.373C-2.459,-1.953 -1.692,-2.411 0,-2.411C1.54,-2.411 2.315,-2.03 3.173,-1.525C4.158,-1.863 5.148,-2.233 6.133,-2.645C5.587,-2.833 5.14,-3.098 4.64,-3.397C3.563,-4.041 2.343,-4.77 0,-4.77" style="fill:white;fill-rule:nonzero;"/>
        </g>
        <g transform="matrix(5.55556,0,0,5.55556,77654.2,-3030.88)">
            <path d="M0,-5.786C-2.077,-4.703 -4.225,-3.583 -6.693,-3.583C-8.441,-3.583 -9.264,-3.978 -10.216,-4.436C-11.115,-4.868 -12.123,-5.346 -13.804,-5.482C-14.034,-5.5 -14.28,-5.511 -14.537,-5.515C-14.614,-5.517 -14.682,-5.522 -14.762,-5.522C-17.105,-5.522 -18.325,-4.793 -19.402,-4.15C-20.373,-3.569 -21.139,-3.111 -22.831,-3.111C-24.524,-3.111 -25.291,-3.57 -26.262,-4.15C-27.339,-4.793 -28.559,-5.522 -30.902,-5.522C-33.295,-5.522 -34.494,-4.79 -35.552,-4.144C-36.497,-3.567 -37.243,-3.111 -38.973,-3.111C-40.665,-3.111 -41.432,-3.569 -42.403,-4.15C-43.48,-4.793 -44.7,-5.522 -47.043,-5.522C-49.387,-5.522 -50.607,-4.793 -51.684,-4.15C-52.654,-3.57 -53.422,-3.111 -55.114,-3.111C-56.805,-3.111 -57.573,-3.569 -58.544,-4.15C-59.62,-4.793 -60.841,-5.522 -63.184,-5.522C-63.627,-5.522 -64.031,-5.496 -64.401,-5.449C-63.855,-4.626 -63.274,-3.86 -62.663,-3.146C-61.325,-3.06 -60.618,-2.642 -59.754,-2.125C-58.677,-1.482 -57.457,-0.753 -55.114,-0.753C-52.771,-0.753 -51.55,-1.482 -50.473,-2.125C-49.503,-2.706 -48.735,-3.164 -47.043,-3.164C-45.351,-3.164 -44.584,-2.705 -43.613,-2.125C-42.536,-1.482 -41.316,-0.753 -38.973,-0.753C-36.58,-0.753 -35.381,-1.485 -34.323,-2.131C-33.378,-2.708 -32.632,-3.164 -30.902,-3.164C-29.21,-3.164 -28.443,-2.705 -27.472,-2.125C-26.395,-1.482 -25.174,-0.753 -22.831,-0.753C-20.489,-0.753 -19.269,-1.482 -18.192,-2.125C-17.221,-2.706 -16.454,-3.164 -14.762,-3.164C-14.567,-3.164 -14.387,-3.157 -14.213,-3.148C-14.187,-3.146 -14.159,-3.146 -14.133,-3.145C-14.085,-3.141 -14.036,-3.136 -13.988,-3.131C-11.775,-2.913 -9.643,-1.431 -7.745,-0.11L-7.295,0.201C-6.666,0.726 -5.55,1.537 -4.127,2.091C-3.23,1.555 -2.353,0.965 -1.504,0.314C-3.14,0.178 -4.557,-0.672 -5.4,-1.305C-2.924,-1.605 -0.807,-2.705 1.091,-3.695C1.63,-3.976 2.14,-4.242 2.643,-4.482L2.696,-4.51C2.989,-4.669 3.267,-4.805 3.536,-4.927C4.174,-5.835 4.767,-6.816 5.307,-7.877C4.145,-7.743 2.967,-7.337 1.598,-6.597C1.067,-6.342 0.524,-6.059 0,-5.786" style="fill:white;fill-rule:nonzero;"/>
        </g>
    </g>
</svg>
